<svg xmlns="http://www.w3.org/2000/svg" viewBox="0 0 386 219" width="386" height="219">
  <g transform="translate(0, 219) rotate(-90)">
    <rect x="147.45" y="366.26" width="71.55" height="19.74" fill="#E4FE00"/>
    <rect x="0" y="366.26" width="71.55" height="19.74" fill="#E4FE00"/>
    <rect x="147.45" y="340.10" width="71.55" height="19.74" fill="#E4FE00"/>
    <rect x="73.73" y="340.10" width="71.55" height="19.74" fill="#E4FE00"/>
    <rect x="0" y="340.10" width="71.55" height="19.74" fill="#E4FE00"/>
    <rect x="147.45" y="313.93" width="71.55" height="19.74" fill="#E4FE00"/>
    <rect x="73.73" y="313.93" width="71.55" height="19.74" fill="#E4FE00"/>
    <rect x="147.45" y="287.77" width="71.55" height="19.74" fill="#E4FE00"/>
    <rect x="0" y="287.77" width="71.55" height="19.74" fill="#E4FE00"/>
    <rect x="73.73" y="261.61" width="71.55" height="19.74" fill="#E4FE00"/>
    <rect x="147.45" y="235.46" width="71.55" height="19.74" fill="#E4FE00"/>
    <rect x="73.73" y="235.46" width="71.55" height="19.74" fill="#E4FE00"/>
    <rect x="0" y="209.30" width="71.55" height="19.74" fill="#E4FE00"/>
    <rect x="147.45" y="183.13" width="71.55" height="19.74" fill="#E4FE00"/>
    <rect x="73.73" y="183.13" width="71.55" height="19.74" fill="#E4FE00"/>
    <rect x="0" y="183.13" width="71.55" height="19.74" fill="#E4FE00"/>
    <rect x="147.45" y="156.97" width="71.55" height="19.74" fill="#E4FE00"/>
    <rect x="0" y="156.97" width="71.55" height="19.74" fill="#E4FE00"/>
    <rect x="147.45" y="130.80" width="71.55" height="19.74" fill="#E4FE00"/>
    <rect x="73.73" y="130.80" width="71.55" height="19.74" fill="#E4FE00"/>
    <rect x="147.45" y="104.64" width="71.55" height="19.74" fill="#E4FE00"/>
    <rect x="73.73" y="78.49" width="71.55" height="19.74" fill="#E4FE00"/>
    <rect x="0" y="78.49" width="71.55" height="19.74" fill="#E4FE00"/>
    <rect x="0" y="52.33" width="71.55" height="19.74" fill="#E4FE00"/>
    <rect x="147.45" y="26.16" width="71.55" height="19.74" fill="#E4FE00"/>
    <rect x="73.73" y="26.16" width="71.55" height="19.74" fill="#E4FE00"/>
    <rect x="0" y="26.16" width="71.55" height="19.74" fill="#E4FE00"/>
    <rect x="147.45" y="0" width="71.55" height="19.74" fill="#E4FE00"/>
  </g>
</svg>
