<?xml version="1.0" encoding="UTF-8"?>
<svg id="Capa_1" data-name="Capa 1" xmlns="http://www.w3.org/2000/svg" viewBox="0 0 1000 1000">
  <defs>
    <style>
      .cls-1 {
        fill: #1d1d1b;
      }

      .cls-2 {
        fill: #e4fd00;
      }
    </style>
  </defs>
  <rect class="cls-2" x="-.08" y="-.02" width="999.58" height="1000.77"/>
  <g>
    <path class="cls-1" d="M278.05,397.96c-19.26,1.52-37.19,9.91-50.86,23.89-13.3,13.61-21.16,31.1-22.51,49.77h-73.08v11.54h62.04l-1.33,6.86c-6.22,32.16-34.31,55.5-66.79,55.5-37.57,0-68.14-30.57-68.14-68.14s30.57-67.83,68.14-67.83c21.56,0,41.86,10.22,54.74,27.44h13.74c-14.23-23.88-40.44-38.99-68.48-38.99-43.94,0-79.68,35.61-79.68,79.37s35.74,79.68,79.68,79.68c40.96,0,74.76-31.31,78.93-71.33v69.77h11.54v-78.12c0-17.7,6.85-34.5,19.28-47.31,11.49-11.84,26.56-19.05,42.78-20.54v-11.58Z"/>
    <path class="cls-1" d="M952.69,444.98c-5.53-25.9-28.72-45.93-54.93-46.65-20.34-.54-40.65-.21-60.95-.2-.79,0-1.59.21-2.74.33v5.26s.01,170.89.01,170.89c0,.79.07,1.62-.03,2.43-.32,2.63.83,3.5,3.4,3.43,7.31-.13,14.61-.04,21.95-.04h4.77s-.01-151.48-.01-151.48c11.03,0,21.53,0,31.97.03,1.44,0,2.89.4,4.34.63,13.49,2.26,23.9,13.64,24.45,26.76.67,15.73-7.79,28.38-22.21,31.38-7.01,1.43-14.47.73-21.75,1.02-1.82.07-3.59,0-5.31,0v30.89c10.18-.51,20.15.13,29.69-1.63,33.83-6.33,54.7-38.97,47.35-73.05Z"/>
    <path class="cls-1" d="M800.77,397.98c-3.1-.07-4.64.93-6.05,3.79-18.37,36.97-36.89,73.87-55.38,110.81-.56,1.21-1.22,2.37-1.84,3.56-.3-.07-.6-.16-.92-.26v-117.81c-9.92,0-19.46-.06-29.04.1-1.02.03-2.44,1.43-3.03,2.53-3.65,6.99-7.11,14.08-10.69,21.14-1.23,2.53-2.57,5.01-4,7.79-9.71-18.07-28.54-30.73-49.26-31.3-20.34-.54-40.65-.21-60.95-.2-.79,0-1.59.21-2.74.33v5.26s0,40.24,0,40.24c-12.69-27.1-40.29-45.94-72.24-45.94-28.7,0-53.88,15.31-67.83,38.19v-38.25h-11.54v79.21c0,.07,0,.15,0,.22v.22c-.12,37.47-30.5,67.92-67.83,67.92s-67.83-30.57-67.83-68.14v-79.43s-11.54,0-11.54,0v79.43c0,43.94,35.6,79.68,79.37,79.68,21.26,0,41.2-8.19,56.16-23.08,4.52-4.5,8.41-9.45,11.67-14.76v61.23s11.54,0,11.54,0v-58.96s9.96,10.56,9.96,10.56c14.99,15.89,36.08,25.01,57.86,25.01,31.95,0,59.56-18.92,72.25-46.13v63.66c0,.79.07,1.62-.03,2.43-.32,2.63.83,3.5,3.4,3.43,7.31-.13,14.61-.04,21.95-.04h4.77s-.01-151.48-.01-151.48c11.03,0,21.53,0,31.97.03,1.44,0,2.89.4,4.34.63,13.49,2.26,23.9,13.64,24.45,26.76.67,15.73-7.79,28.38-22.21,31.38-7.01,1.43-14.47.72-21.75,1.02-1.82.07-3.59,0-5.31,0v30.89c9.28-.46,18.39,0,27.16-1.24l-.22.45c-10.14,20.4-20.27,40.64-30.71,61.53,9.45,0,18.21-.16,26.93.07,3.1.1,4.64-.86,6.05-3.73,18.43-37.11,36.99-74.15,55.55-111.22.6-1.23,1.29-2.46,1.95-3.69.26.07.53.14.79.21v118.36c9.13,0,17.75-.16,26.37.1,3.33.1,4.83-1.1,6.28-3.99,18.46-37.11,37.01-74.15,55.61-111.22.59-1.2,1.22-2.36,1.88-3.56.2.1.43.21.66.31v118.1s30.69,0,30.69,0v-182.1c-9.1,0-17.89.17-26.64-.06ZM552.87,525.52c-12.86,12.91-30,20.02-48.25,20.02-37.4,0-67.83-30.57-67.83-68.14s30.43-67.83,67.83-67.83,68.14,30.43,68.14,67.83c0,18.16-7.06,35.25-19.89,48.12Z"/>
  </g>
</svg>