<svg width="198" height="40" viewBox="0 0 198 40" fill="none" xmlns="http://www.w3.org/2000/svg">
<g clip-path="url(#clip0_66_50)">
<path d="M50.6213 0C46.4234 0.328443 42.5129 2.15541 39.5364 5.20377C36.642 8.17003 34.9279 11.9882 34.6302 16.0527H18.7007V18.5673H32.2285L31.9411 20.0658C30.5863 27.076 24.4588 32.1669 17.387 32.1669C9.19641 32.1669 2.53517 25.5057 2.53517 17.3151C2.53517 9.12457 9.17589 2.52491 17.3664 2.52491C22.0673 2.52491 26.491 4.75216 29.3033 8.50873H32.3004C29.1904 3.30496 23.4837 0.0102639 17.3664 0.0102639C7.79027 0.0102639 0 7.78 0 17.3151C0 26.8502 7.79027 34.6816 17.3664 34.6816C26.296 34.6816 33.6654 27.8561 34.5687 19.1318V34.3429H37.0833V17.3151C37.0833 13.4559 38.5716 9.79172 41.2812 6.99995C43.7856 4.42372 47.07 2.85335 50.6111 2.52491V0H50.6213Z" fill="#1D1D1B"/>
<path d="M197.681 10.2536C196.481 4.60846 191.42 0.246325 185.704 0.0821036C181.27 -0.0410627 176.846 0.0410482 172.412 0.0410482C172.237 0.0410482 172.063 0.0821036 171.817 0.112895V38.51C171.817 38.6845 171.837 38.8589 171.817 39.0437C171.745 39.6185 172.001 39.8032 172.556 39.793C174.146 39.7622 175.737 39.793 177.338 39.793H178.375V6.75361C180.777 6.75361 183.066 6.75361 185.344 6.75361C185.662 6.75361 185.97 6.83572 186.289 6.88704C189.234 7.3797 191.503 9.86356 191.615 12.7169C191.759 16.145 189.912 18.906 186.771 19.5629C185.242 19.8708 183.62 19.7169 182.029 19.7887C181.629 19.8092 181.249 19.7887 180.869 19.7887V26.5218C183.086 26.4089 185.262 26.5526 187.346 26.1626C194.725 24.7872 199.272 17.6641 197.671 10.2433" fill="#1D1D1B"/>
<path d="M110.521 27.8048C107.719 30.6171 103.983 32.1669 100.001 32.1669C91.8515 32.1669 85.2108 25.5057 85.2108 17.3151C85.2108 9.12457 91.8412 2.52491 100.001 2.52491C108.161 2.52491 114.853 9.15536 114.853 17.3151C114.853 21.277 113.313 25.0028 110.521 27.8048ZM164.571 5.57723e-06C163.893 -0.0205221 163.555 0.205283 163.247 0.831378C159.244 8.8885 155.2 16.9354 151.177 24.9822C151.053 25.2491 150.91 25.4954 150.776 25.7623C150.715 25.752 150.643 25.7315 150.571 25.7007V0.0205333C148.405 0.0205333 146.332 0.0102694 144.238 0.041061C144.012 0.041061 143.704 0.348977 143.581 0.595309C142.781 2.11436 142.031 3.6642 141.251 5.20378C140.985 5.75803 140.687 6.30201 140.379 6.90758C138.265 2.96626 134.159 0.215546 129.643 0.0821164C125.209 -0.0410498 120.785 0.041061 116.351 0.041061C116.177 0.041061 116.002 0.0821164 115.756 0.112908V10.0278C112.985 4.11581 106.97 0.0102694 100.011 0.0102694C93.7606 0.0102694 88.2694 3.34602 85.221 8.33425V5.57723e-06H82.7064V17.2638C82.7064 17.2638 82.7064 17.2946 82.7064 17.3151V17.3664C82.6756 25.5365 76.0554 32.1669 67.9162 32.1669C59.7769 32.1669 53.126 25.5057 53.126 17.3151V5.57723e-06H50.6113V17.3151C50.6113 26.8913 58.3708 34.6816 67.9162 34.6816C72.5452 34.6816 76.8971 32.8957 80.161 29.6523C81.1463 28.6772 81.9982 27.5892 82.7064 26.4294V39.7724H85.221V26.9221L87.397 29.2212C90.6711 32.6904 95.2591 34.6713 100.011 34.6713C106.98 34.6713 112.995 30.5452 115.756 24.6127V38.4895C115.756 38.6639 115.777 38.8384 115.756 39.0232C115.684 39.5979 115.941 39.7827 116.495 39.7724C118.086 39.7416 119.677 39.7724 121.278 39.7724H122.315V6.75362C124.716 6.75362 127.005 6.75362 129.284 6.75362C129.602 6.75362 129.91 6.83573 130.228 6.88705C133.163 7.37972 135.432 9.86357 135.555 12.7169C135.699 16.145 133.861 18.906 130.71 19.5629C129.181 19.8708 127.559 19.7169 125.969 19.7887C125.568 19.8092 125.188 19.7887 124.809 19.7887V26.5218C126.831 26.4192 128.822 26.5218 130.731 26.2549L130.68 26.3576C128.473 30.8018 126.266 35.2153 123.988 39.7724C126.051 39.7724 127.96 39.7416 129.859 39.793C130.536 39.8135 130.875 39.6082 131.183 38.9821C135.196 30.8942 139.25 22.8166 143.294 14.7389C143.427 14.472 143.571 14.2052 143.715 13.9383C143.776 13.9588 143.828 13.9691 143.889 13.9794V39.7827C145.88 39.7827 147.759 39.7519 149.637 39.8032C150.366 39.8238 150.694 39.5672 151.002 38.9308C155.026 30.8429 159.069 22.7652 163.124 14.6876C163.247 14.431 163.391 14.1744 163.534 13.9075C163.575 13.9281 163.627 13.9486 163.678 13.9794V39.7211H170.37V0.0102694C168.389 0.0102694 166.47 0.0513248 164.561 5.57723e-06" fill="#1D1D1B"/>
</g>
<defs>
<clipPath id="clip0_66_50">
<rect width="198" height="39.793" fill="white"/>
</clipPath>
</defs>
</svg>
