<svg width="199" height="81" viewBox="0 0 199 81" fill="none" xmlns="http://www.w3.org/2000/svg">
<g clip-path="url(#clip0_66_60)">
<path d="M44.8671 41.9879C44.72 42.5132 44.2997 42.9966 43.6272 43.4799C42.9547 43.9633 42.1561 44.1734 41.2105 44.1734C39.9075 44.1734 38.9198 43.8372 38.2263 43.1647C37.5328 42.4922 37.1546 41.3995 37.0915 39.9074H49.2172C49.3012 38.6045 49.1961 37.3646 48.9019 36.1667C48.6077 34.9689 48.1034 33.9181 47.4099 32.9725C46.7164 32.0478 45.8548 31.2913 44.804 30.7449C43.7323 30.1985 42.4924 29.9253 41.0634 29.9253C39.7814 29.9253 38.6256 30.1565 37.5749 30.6188C36.5241 31.0811 35.6205 31.6905 34.8639 32.4891C34.1074 33.2877 33.519 34.2123 33.0987 35.3051C32.6784 36.3979 32.4893 37.5537 32.4893 38.8146C32.4893 40.0755 32.6784 41.3154 33.0987 42.3872C33.498 43.4799 34.0654 44.4046 34.8009 45.1821C35.5364 45.9597 36.4401 46.5691 37.4908 46.9894C38.5626 47.4097 39.7394 47.6199 41.0634 47.6199C42.9757 47.6199 44.5939 47.1786 45.9388 46.317C47.2838 45.4553 48.2715 44.0053 48.9229 41.9879H44.8671ZM37.3017 35.8725C37.4278 35.4522 37.6169 35.074 37.9111 34.6957C38.2053 34.3174 38.5836 34.0232 39.088 33.771C39.5713 33.5188 40.1807 33.3928 40.9373 33.3928C42.0721 33.3928 42.9127 33.687 43.4591 34.2964C44.0055 34.9058 44.4047 35.7885 44.6149 36.9653H37.1125C37.1336 36.6501 37.1966 36.2718 37.3227 35.8515L37.3017 35.8725Z" fill="#1D1D1B"/>
<path d="M5.84198 38.8566H11.2008C12.6508 38.8566 13.8907 38.6465 14.8994 38.2262C15.9081 37.8059 16.7487 37.2385 17.3792 36.545C18.0096 35.8515 18.493 35.0529 18.7872 34.1493C19.0814 33.2457 19.2285 32.342 19.2285 31.3963C19.2285 30.4507 19.0814 29.526 18.7872 28.6224C18.493 27.7397 18.0307 26.9412 17.3792 26.2477C16.7277 25.5542 15.9081 24.9868 14.8994 24.5665C13.8907 24.1462 12.6508 23.936 11.2008 23.936H0.735352V47.1576H5.84198V38.8356V38.8566ZM5.84198 27.9289H9.81381C10.4022 27.9289 10.9696 27.9709 11.495 28.055C12.0204 28.139 12.5037 28.3071 12.924 28.5593C13.3443 28.8115 13.6595 29.1688 13.9117 29.6101C14.1639 30.0724 14.29 30.6608 14.29 31.3963C14.29 32.1319 14.1639 32.7203 13.9117 33.1826C13.6595 33.6449 13.3233 34.0022 12.924 34.2334C12.5037 34.4855 12.0414 34.6537 11.495 34.7377C10.9486 34.8218 10.3812 34.8638 9.81381 34.8638H5.84198V27.9079V27.9289Z" fill="#1D1D1B"/>
<path d="M31.6272 34.2544C31.9214 34.2964 32.1946 34.3174 32.4047 34.3805V30.0934C32.0265 29.9883 31.6902 29.9253 31.396 29.9253C30.8076 29.9253 30.2402 30.0094 29.7148 30.1775C29.1684 30.3456 28.6641 30.5978 28.1807 30.913C27.6974 31.2282 27.2771 31.6065 26.9198 32.0478C26.5416 32.4891 26.2684 32.9725 26.0372 33.4978H25.9742V30.3666H21.582V47.1786H26.2053V39.5922C26.2053 38.8356 26.2894 38.1211 26.4365 37.4697C26.5836 36.8182 26.8358 36.2508 27.193 35.7674C27.5503 35.2841 28.0336 34.9058 28.601 34.6116C29.1894 34.3384 29.9039 34.1913 30.7445 34.1913C31.0177 34.1913 31.312 34.1913 31.6272 34.2334V34.2544Z" fill="#1D1D1B"/>
<path d="M72.46 36.3348H62.667V40.3067H72.46V36.3348Z" fill="#1D1D1B"/>
<path d="M85.9095 27.4245L82.463 21.6664H77.3984L82.6942 27.4245H85.9095Z" fill="#1D1D1B"/>
<path d="M52.8311 25.3441V30.3876H50.0361V33.4768H52.8311V43.3959C52.8311 44.2365 52.9782 44.93 53.2514 45.4343C53.5246 45.9597 53.9239 46.359 54.4072 46.6322C54.8906 46.9054 55.458 47.1155 56.0884 47.1996C56.7189 47.3047 57.4124 47.3467 58.1269 47.3467C58.5892 47.3467 59.0515 47.3467 59.5349 47.3047C60.0182 47.2626 60.4385 47.2416 60.8378 47.1786V43.606C60.6277 43.6481 60.3965 43.6901 60.1653 43.7111C59.9342 43.7321 59.682 43.7532 59.4088 43.7532C58.6312 43.7532 58.1059 43.6271 57.8537 43.3539C57.6015 43.0807 57.4544 42.5763 57.4544 41.7988V33.4768H60.8378V30.3876H57.4544V25.3441H52.8311Z" fill="#1D1D1B"/>
<path d="M140.78 32.342C140.023 31.5645 139.098 30.976 138.027 30.5557C136.955 30.1354 135.757 29.9253 134.433 29.9253C133.109 29.9253 131.911 30.1354 130.861 30.5557C129.789 30.976 128.885 31.5855 128.129 32.342C127.372 33.1196 126.784 34.0442 126.363 35.137C125.943 36.2298 125.754 37.4486 125.754 38.7936C125.754 40.1386 125.964 41.3574 126.363 42.4292C126.763 43.522 127.351 44.4466 128.129 45.2032C128.885 45.9807 129.789 46.5691 130.861 46.9684C131.911 47.3887 133.109 47.5779 134.433 47.5779C135.757 47.5779 136.955 47.3677 138.027 46.9684C139.098 46.5691 140.023 45.9597 140.78 45.2032C141.536 44.4466 142.125 43.501 142.545 42.4292C142.944 41.3364 143.154 40.1386 143.154 38.7936C143.154 37.4486 142.944 36.2298 142.545 35.137C142.125 34.0442 141.557 33.1196 140.78 32.342ZM138.342 40.769C138.216 41.4205 137.985 41.9879 137.669 42.4922C137.354 42.9966 136.934 43.4169 136.408 43.7111C135.883 44.0053 135.232 44.1734 134.433 44.1734C133.635 44.1734 133.004 44.0263 132.479 43.7111C131.953 43.4169 131.533 42.9966 131.218 42.4922C130.903 41.9879 130.692 41.3995 130.545 40.769C130.419 40.1386 130.356 39.4661 130.356 38.7936C130.356 38.1211 130.419 37.4697 130.545 36.8182C130.671 36.1667 130.903 35.5993 131.218 35.095C131.533 34.5906 131.953 34.1913 132.479 33.8761C133.004 33.5609 133.656 33.4138 134.433 33.4138C135.211 33.4138 135.862 33.5819 136.408 33.8761C136.934 34.1913 137.354 34.5906 137.669 35.095C137.985 35.5993 138.216 36.1667 138.342 36.8182C138.468 37.4697 138.531 38.1211 138.531 38.7936C138.531 39.4661 138.468 40.1175 138.342 40.769Z" fill="#1D1D1B"/>
<path d="M103.646 36.3348H93.8525V40.3067H103.646V36.3348Z" fill="#1D1D1B"/>
<path d="M163.916 25.344H159.293V30.3876H156.603V30.0934C156.225 29.9883 155.888 29.9253 155.594 29.9253C155.006 29.9253 154.438 30.0093 153.913 30.1775C153.367 30.3456 152.862 30.5978 152.379 30.913C151.896 31.2282 151.475 31.6065 151.118 32.0478C150.74 32.4891 150.446 32.9724 150.235 33.4978H150.172V30.3666H145.78V47.1785H150.404V39.5921C150.404 38.8356 150.467 38.1211 150.635 37.4696C150.782 36.8182 151.034 36.2508 151.391 35.7674C151.749 35.2841 152.232 34.9058 152.799 34.6116C153.388 34.3384 154.102 34.1913 154.943 34.1913C155.216 34.1913 155.51 34.1913 155.825 34.2333C156.12 34.2754 156.393 34.2964 156.603 34.3594V33.4558H159.293V43.3748C159.293 44.2154 159.44 44.9089 159.713 45.4133C159.986 45.9387 160.386 46.3379 160.869 46.6111C161.352 46.8843 161.92 47.0945 162.55 47.1785C163.181 47.2836 163.874 47.3257 164.589 47.3257C165.051 47.3257 165.513 47.3257 165.997 47.2836C166.48 47.2626 166.9 47.2206 167.3 47.1575V43.585C167.089 43.627 166.858 43.6691 166.627 43.6901C166.396 43.7111 166.144 43.7321 165.871 43.7321C165.093 43.7321 164.568 43.606 164.315 43.3328C164.063 43.0806 163.916 42.5553 163.916 41.7777V33.4558H167.3V30.3666H163.916V25.323V25.344Z" fill="#1D1D1B"/>
<path d="M122.013 32.6572C121.383 31.8377 120.584 31.1652 119.638 30.6818C118.693 30.1775 117.537 29.9253 116.234 29.9253C115.183 29.9253 114.238 30.1354 113.376 30.5347C112.514 30.955 111.8 31.6065 111.233 32.5101H111.169V30.3666H106.777V53.0628H111.401V45.0981H111.464C112.031 45.9177 112.746 46.5481 113.628 46.9684C114.511 47.3887 115.478 47.5989 116.507 47.5989C117.747 47.5989 118.819 47.3677 119.744 46.8844C120.668 46.401 121.425 45.7706 122.055 44.972C122.665 44.1734 123.127 43.2488 123.442 42.198C123.736 41.1473 123.905 40.0755 123.905 38.9407C123.905 37.7429 123.757 36.608 123.442 35.5153C123.148 34.4225 122.665 33.4558 122.034 32.6362L122.013 32.6572ZM119.05 40.811C118.924 41.4625 118.693 42.0299 118.378 42.5132C118.062 42.9966 117.642 43.3959 117.138 43.6901C116.633 43.9843 116.003 44.1524 115.246 44.1524C114.49 44.1524 113.88 44.0053 113.355 43.6901C112.83 43.3959 112.409 42.9966 112.094 42.5132C111.779 42.0299 111.548 41.4625 111.401 40.811C111.254 40.1596 111.19 39.5081 111.19 38.8356C111.19 38.1632 111.254 37.4697 111.38 36.8182C111.506 36.1667 111.737 35.5993 112.052 35.095C112.367 34.5906 112.788 34.1913 113.292 33.8761C113.796 33.5609 114.448 33.4138 115.204 33.4138C115.961 33.4138 116.57 33.5819 117.075 33.8761C117.579 34.1913 117.999 34.6116 118.336 35.116C118.651 35.6203 118.882 36.2088 119.029 36.8602C119.176 37.5117 119.239 38.1632 119.239 38.8356C119.239 39.5081 119.176 40.1596 119.05 40.811Z" fill="#1D1D1B"/>
<path d="M184.763 36.1667C184.469 34.9689 183.965 33.9181 183.292 32.9725C182.62 32.0478 181.737 31.2913 180.665 30.7449C179.594 30.1985 178.354 29.9253 176.925 29.9253C175.643 29.9253 174.487 30.1565 173.436 30.6188C172.385 31.0811 171.482 31.6905 170.725 32.4891C169.969 33.2877 169.38 34.2123 168.96 35.3051C168.54 36.3979 168.351 37.5537 168.351 38.8146C168.351 40.0755 168.561 41.3154 168.96 42.3872C169.359 43.4799 169.927 44.4046 170.662 45.1821C171.398 45.9597 172.301 46.5691 173.352 46.9894C174.424 47.4097 175.601 47.6199 176.925 47.6199C178.837 47.6199 180.455 47.1786 181.8 46.317C183.145 45.4553 184.133 44.0053 184.784 41.9879H180.728C180.581 42.5132 180.161 42.9966 179.489 43.4799C178.816 43.9633 178.017 44.1734 177.072 44.1734C175.769 44.1734 174.781 43.8372 174.088 43.1647C173.394 42.4922 173.016 41.3995 172.953 39.9074H185.078C185.163 38.6045 185.057 37.3646 184.763 36.1667ZM172.974 36.9863C172.995 36.6711 173.058 36.2928 173.184 35.8725C173.31 35.4522 173.499 35.074 173.793 34.6957C174.088 34.3174 174.487 34.0232 174.97 33.771C175.454 33.5188 176.063 33.3928 176.799 33.3928C177.933 33.3928 178.774 33.687 179.32 34.2964C179.867 34.9058 180.266 35.7885 180.476 36.9653H172.974V36.9863Z" fill="#1D1D1B"/>
<path d="M197.289 29.9253C196.7 29.9253 196.133 30.0094 195.607 30.1775C195.061 30.3456 194.557 30.5978 194.073 30.913C193.59 31.2282 193.17 31.6065 192.812 32.0478C192.434 32.4891 192.161 32.9725 191.93 33.4979H191.867V30.3666H187.475V47.1786H192.098V39.5922C192.098 38.8357 192.182 38.1211 192.329 37.4697C192.476 36.8182 192.728 36.2508 193.086 35.7675C193.443 35.2841 193.905 34.9059 194.494 34.6116C195.082 34.3385 195.797 34.1913 196.637 34.1913C196.91 34.1913 197.205 34.1913 197.52 34.2334C197.814 34.2754 198.087 34.2964 198.297 34.3595V30.0724C197.919 29.9673 197.583 29.9043 197.289 29.9043V29.9253Z" fill="#1D1D1B"/>
<path d="M78.3229 47.3257C79.0164 47.5148 79.773 47.6199 80.5715 47.6199C81.6223 47.6199 82.631 47.4728 83.6187 47.1576C84.6064 46.8633 85.489 46.317 86.2246 45.5604C86.2456 45.8336 86.2876 46.1278 86.3296 46.401C86.3927 46.6742 86.4557 46.9264 86.5398 47.1996H91.2261C91.016 46.8423 90.8478 46.338 90.7638 45.6445C90.6797 44.951 90.6377 44.2155 90.6377 43.4589V34.7167C90.6377 33.708 90.4065 32.8884 89.9652 32.258C89.5029 31.6485 88.9145 31.1652 88.2 30.8079C87.4855 30.4507 86.6869 30.2195 85.8253 30.1144C84.9637 29.9883 84.102 29.9253 83.2614 29.9253C82.3368 29.9253 81.3911 30.0094 80.4875 30.1985C79.5628 30.3876 78.7432 30.7028 78.0077 31.1231C77.2722 31.5645 76.6628 32.1319 76.1794 32.8464C75.6961 33.5609 75.4229 34.4645 75.3598 35.5363H79.9831C80.0672 34.6326 80.3824 33.9812 80.8868 33.5819C81.4121 33.1826 82.1266 32.9935 83.0303 32.9935C83.4506 32.9935 83.8289 33.0145 84.1861 33.0775C84.5434 33.1406 84.8586 33.2457 85.1318 33.3928C85.405 33.5609 85.6151 33.792 85.7832 34.0863C85.9514 34.3805 86.0354 34.7797 86.0354 35.2841C86.0564 35.7675 85.9093 36.1247 85.6151 36.3769C85.3209 36.6291 84.9006 36.8182 84.3752 36.9443C83.8499 37.0704 83.2614 37.1754 82.589 37.2385C81.9165 37.3015 81.244 37.3856 80.5505 37.4907C79.857 37.5958 79.1635 37.7429 78.4911 37.932C77.7976 38.1211 77.2091 38.3943 76.6628 38.7726C76.1374 39.1509 75.6961 39.6342 75.3598 40.2436C75.0236 40.8741 74.8555 41.6516 74.8555 42.5973C74.8555 43.4589 75.0026 44.2155 75.2968 44.8459C75.591 45.4764 75.9903 46.0017 76.5157 46.401C77.041 46.8213 77.6505 47.1155 78.344 47.3047L78.3229 47.3257ZM79.6889 41.3364C79.836 41.0632 80.0462 40.8321 80.2983 40.6429C80.5505 40.4538 80.8447 40.3067 81.181 40.2016C81.5172 40.0965 81.8534 40.0125 82.2107 39.9494C82.589 39.8864 82.9462 39.8233 83.3245 39.7813C83.7028 39.7393 84.039 39.6762 84.3752 39.6132C84.7115 39.5501 85.0267 39.4661 85.3209 39.361C85.6151 39.2559 85.8673 39.1298 86.0564 38.9617V40.6849C86.0564 40.9371 86.0354 41.2944 85.9724 41.7357C85.9093 42.177 85.7832 42.5973 85.5311 43.0176C85.2999 43.4379 84.9216 43.7952 84.4173 44.1104C83.9129 44.4046 83.2194 44.5727 82.2948 44.5727C81.9165 44.5727 81.5592 44.5307 81.223 44.4676C80.8657 44.4046 80.5715 44.2785 80.3194 44.1314C80.0672 43.9633 79.857 43.7531 79.7099 43.4589C79.5628 43.1857 79.4788 42.8285 79.4788 42.4082C79.4788 41.9669 79.5628 41.6096 79.7099 41.3364H79.6889Z" fill="#1D1D1B"/>
<path d="M39.1511 5.02257L53.4203 19.5859L56.7827 16.2866L40.7903 0L37.4279 0.0210149L21.4355 16.7909L24.84 20.0272L39.1511 5.02257Z" fill="#1D1D1B"/>
<path d="M13.9119 70.9465C13.3865 70.5892 12.8191 70.295 12.2307 70.1059C11.5792 69.8957 10.9278 69.7066 10.2553 69.5385L8.32192 69.1182C7.75452 69.0131 7.20813 68.845 6.66174 68.6558C6.22042 68.5297 5.82114 68.3196 5.46389 68.0254C5.16968 67.7732 5.00156 67.4159 5.00156 67.0377C5.00156 66.7435 5.08562 66.4282 5.25374 66.1971C5.44287 66.0079 5.65302 65.8398 5.9052 65.7348C6.15738 65.6087 6.45159 65.5456 6.72478 65.5246C6.99798 65.5246 7.29219 65.5246 7.56538 65.5246C8.32192 65.5036 9.05744 65.6507 9.72992 65.9869C10.3394 66.3862 10.7176 67.0797 10.7176 67.8152H15.0467C15.0047 66.8906 14.7315 66.008 14.2481 65.2094C13.8278 64.5579 13.2604 63.9905 12.588 63.5912C11.8734 63.1709 11.0959 62.8557 10.2973 62.7086C9.43571 62.5405 8.53207 62.4564 7.64944 62.4564C6.7458 62.4564 5.86317 62.5405 4.98054 62.6876C4.16096 62.8347 3.36239 63.1289 2.64788 63.5282C1.95439 63.9275 1.38699 64.4949 0.987703 65.1674C0.525374 65.9869 0.294209 66.8906 0.336239 67.8362C0.315224 68.4877 0.462329 69.1392 0.798568 69.7066C1.11379 70.2109 1.51308 70.6523 2.01743 70.9885C2.54281 71.3457 3.13123 71.5979 3.71965 71.7871C4.35009 71.9972 5.00156 72.1863 5.67404 72.3334C6.97696 72.5856 8.27989 72.9429 9.51977 73.3632C10.4444 73.6994 10.9068 74.2248 10.9068 74.9183C10.9068 75.2755 10.8227 75.6328 10.6125 75.927C10.4234 76.2002 10.1923 76.4103 9.89804 76.5785C9.58282 76.7466 9.26759 76.8727 8.93135 76.9567C8.59511 77.0198 8.23786 77.0618 7.90162 77.0618C7.46031 77.0618 7.01899 77.0198 6.59869 76.9147C6.19941 76.8096 5.80013 76.6415 5.46389 76.3893C5.12765 76.1582 4.85445 75.864 4.66532 75.5277C4.43415 75.1284 4.32908 74.6661 4.35009 74.2038H0C0 76.0741 0.966688 77.8183 2.56382 78.8271C3.32036 79.2894 4.18197 79.6256 5.0646 79.7938C6.01028 79.9829 6.95595 80.088 7.92264 80.0669C8.86831 80.0669 9.81398 79.9829 10.7386 79.7938C11.6003 79.6256 12.4408 79.3104 13.1764 78.8481C14.7525 77.8814 15.6561 76.1161 15.5721 74.2668C15.5931 73.5733 15.446 72.9009 15.1097 72.2914C14.7945 71.766 14.3952 71.3037 13.8909 70.9465H13.9119Z" fill="#1D1D1B"/>
<path d="M23.9778 57.8121H19.3546V62.8767H16.5596V65.9659H19.3546V75.864C19.3125 76.5995 19.4386 77.356 19.7749 78.0285C20.0481 78.5329 20.4473 78.9532 20.9517 79.2264C21.4771 79.5206 22.0445 79.7097 22.6329 79.7938C23.3054 79.8988 23.9778 79.9619 24.6503 79.9409H26.0583C26.4996 79.9409 26.9199 79.8778 27.3613 79.8148V76.2422H25.9322C25.638 76.3263 25.3228 76.3263 25.0076 76.2422C24.188 75.9901 23.7257 75.1074 23.9778 74.2879V65.9659H27.3613V62.8767L23.9778 62.8347V57.8121Z" fill="#1D1D1B"/>
<path d="M40.6006 71.745C40.7057 73.0269 40.4115 74.3088 39.76 75.4226C39.0875 76.2212 38.0788 76.6415 37.0281 76.5574C36.1244 76.6625 35.2418 76.2632 34.7164 75.5277C34.2121 74.582 34.0019 73.5103 34.065 72.4385V62.9398H29.6729V73.2791C29.6729 74.2248 29.7569 75.1915 29.946 76.1161C30.1142 76.8937 30.4294 77.6292 30.8917 78.2807C31.3751 78.9111 32.0265 79.3734 32.7831 79.6677C33.7498 80.0249 34.7795 80.172 35.8092 80.151C36.7969 80.151 37.7846 79.9198 38.6672 79.4995C39.5919 79.0162 40.3484 78.2597 40.8318 77.335V79.7097L45.2029 79.7517V62.9398H40.5796V71.766L40.6006 71.745Z" fill="#1D1D1B"/>
<path d="M60.3554 64.9362C59.83 64.1166 59.0735 63.4441 58.1909 63.0448C57.3083 62.6245 56.3416 62.4144 55.3539 62.4144C54.2191 62.3934 53.1053 62.6455 52.0965 63.1499C51.1929 63.6122 50.3943 64.2637 49.7849 65.0833C49.1545 65.9239 48.6711 66.8485 48.3769 67.8573C48.0617 68.929 47.9146 70.0218 47.8936 71.1356C47.8936 72.2704 48.0617 73.4052 48.3769 74.519C48.6711 75.5487 49.1545 76.5364 49.7849 77.398C50.3943 78.2386 51.1929 78.9111 52.1176 79.3734C53.1473 79.8778 54.2821 80.13 55.4379 80.109C56.4677 80.13 57.4764 79.9198 58.401 79.4995C59.3047 79.1003 60.0822 78.4068 60.5656 77.5451H60.6286V79.6887H64.9577V56.4882H60.3344V64.9362H60.3554ZM60.3764 73.2581C60.2503 73.8675 60.0402 74.4559 59.725 74.9813C59.4308 75.4857 58.9894 75.906 58.4851 76.2002C57.9177 76.5154 57.2662 76.6835 56.5937 76.6625C55.9423 76.6835 55.3118 76.5154 54.7444 76.1792C54.2401 75.885 53.7988 75.4436 53.4835 74.9393C53.1263 74.4139 52.8741 73.8255 52.748 73.2161C52.6009 72.5856 52.5168 71.9131 52.5168 71.2617C52.5168 70.5892 52.6009 69.9167 52.727 69.2652C52.8531 68.6558 53.0842 68.0884 53.4205 67.563C53.7147 67.0587 54.156 66.6594 54.6604 66.3652C55.2488 66.05 55.9213 65.8818 56.5937 65.9029C57.2452 65.8818 57.8967 66.0289 58.4851 66.3652C58.9684 66.6594 59.3887 67.0587 59.704 67.542C60.0402 68.0674 60.2503 68.6348 60.3764 69.2232C60.6286 70.5472 60.6286 71.9131 60.3764 73.2581Z" fill="#1D1D1B"/>
<path d="M73.1321 62.8978H68.5088V79.7097H73.1321V62.8978Z" fill="#1D1D1B"/>
<path d="M73.027 56.4882H68.5088V60.2709H73.027V56.4882Z" fill="#1D1D1B"/>
<path d="M91.1838 64.8521C90.4063 64.0536 89.4606 63.4441 88.4309 63.0449C87.2751 62.6246 86.0562 62.3934 84.8373 62.4144C83.6185 62.4144 82.3996 62.6035 81.2648 63.0449C80.2351 63.4441 79.3104 64.0536 78.5328 64.8521C77.7553 65.6507 77.1459 66.5964 76.7886 67.6471C76.3683 68.824 76.1582 70.0638 76.1792 71.3037C76.1582 72.5436 76.3683 73.7835 76.7886 74.9393C77.1669 75.969 77.7763 76.9147 78.5328 77.7133C79.3104 78.4908 80.2351 79.1003 81.2648 79.4996C82.3996 79.9199 83.6185 80.13 84.8373 80.109C86.0562 80.13 87.2751 79.9199 88.4309 79.4996C89.4606 79.1003 90.4063 78.5119 91.1838 77.7133C91.9614 76.9147 92.5498 75.969 92.9281 74.9393C93.3484 73.7835 93.5585 72.5436 93.5375 71.3037C93.5375 70.0638 93.3484 68.824 92.9281 67.6471C92.5498 66.5964 91.9614 65.6507 91.1838 64.8521ZM88.7251 73.2581C88.599 73.8676 88.3889 74.456 88.0736 74.9813C87.7584 75.4857 87.3171 75.906 86.7917 76.2002C86.1823 76.5154 85.5098 76.6836 84.8163 76.6625C84.1438 76.6836 83.4714 76.5364 82.8619 76.2002C82.3576 75.906 81.9373 75.4857 81.622 74.9813C81.2858 74.456 81.0757 73.8676 80.9496 73.2581C80.8235 72.6067 80.7604 71.9552 80.7604 71.3037C80.7604 70.6312 80.8235 69.9588 80.9496 69.3073C81.0546 68.6979 81.2858 68.1095 81.622 67.6051C81.9373 67.1007 82.3576 66.6804 82.8619 66.3652C83.4503 66.05 84.1228 65.8819 84.8163 65.9029C86.1192 65.8188 87.3801 66.4703 88.0736 67.5841C88.3889 68.1095 88.599 68.6979 88.7251 69.2863C88.8512 69.9378 88.9142 70.6102 88.9142 71.2827C88.9142 71.9342 88.8512 72.5856 88.7251 73.2371V73.2581Z" fill="#1D1D1B"/>
</g>
<defs>
<clipPath id="clip0_66_60">
<rect width="198.297" height="80.13" fill="white"/>
</clipPath>
</defs>
</svg>
