<svg width="189" height="77" viewBox="0 0 189 77" fill="none" xmlns="http://www.w3.org/2000/svg">
<g clip-path="url(#clip0_66_55)">
<path d="M72.76 71.9043C72.9589 72.2425 73.2175 72.5209 73.5158 72.7397C73.8341 72.9585 74.1722 73.1177 74.5899 73.2171C74.9877 73.3166 75.4054 73.3762 75.843 73.3762C76.1613 73.3762 76.4795 73.3365 76.8177 73.2569C77.1558 73.1972 77.4741 73.0779 77.7525 72.9188C78.031 72.7596 78.2697 72.5607 78.4487 72.3022C78.6277 72.0436 78.7272 71.7253 78.7272 71.3275C78.7272 70.6711 78.2896 70.1739 77.4144 69.8357C76.5392 69.4976 75.3259 69.1793 73.7545 68.8412C73.118 68.702 72.4815 68.5229 71.8848 68.324C71.2682 68.1251 70.7312 67.8666 70.2538 67.5483C69.7764 67.2301 69.3985 66.8322 69.1001 66.335C68.8018 65.8576 68.6625 65.2609 68.6625 64.5448C68.6625 63.5105 68.8614 62.6751 69.2593 61.9988C69.6571 61.3226 70.1941 60.8253 70.8505 60.4275C71.5069 60.0297 72.2627 59.7711 73.0782 59.6319C73.9136 59.4727 74.749 59.3932 75.6242 59.3932C76.4994 59.3932 77.3348 59.4727 78.1503 59.6319C78.9658 59.791 79.7018 60.0695 80.3383 60.4673C80.9748 60.8651 81.5118 61.3822 81.9295 62.0386C82.3472 62.695 82.6058 63.5105 82.6854 64.5051H78.5084C78.4487 63.6498 78.1304 63.0928 77.5536 62.7945C76.9768 62.4961 76.3005 62.337 75.5049 62.337C75.2662 62.337 74.9877 62.337 74.7093 62.3768C74.4109 62.4166 74.1523 62.4762 73.9136 62.5757C73.675 62.6751 73.4761 62.8343 73.3169 63.0133C73.1578 63.2122 73.0782 63.4708 73.0782 63.8089C73.0782 64.2067 73.2175 64.525 73.5158 64.7636C73.8142 65.0023 74.1722 65.2211 74.6496 65.3604C75.1071 65.5195 75.6441 65.6587 76.2408 65.7781C76.8376 65.8974 77.4542 66.0366 78.0708 66.1759C78.7073 66.3151 79.3239 66.4941 79.9405 66.693C80.5571 66.8919 81.0941 67.1704 81.5715 67.5085C82.0489 67.8467 82.4268 68.2644 82.7252 68.7815C83.0235 69.2987 83.1628 69.9153 83.1628 70.6512C83.1628 71.7054 82.944 72.5806 82.5263 73.2967C82.1086 74.0127 81.5516 74.5697 80.8753 75.0073C80.1991 75.4449 79.4233 75.7432 78.5283 75.9222C77.6531 76.1012 76.758 76.1808 75.843 76.1808C74.9281 76.1808 74.0131 76.0814 73.118 75.9023C72.2229 75.7233 71.4472 75.4051 70.751 74.9675C70.0549 74.5299 69.4979 73.973 69.0405 73.2569C68.6029 72.5408 68.3642 71.6458 68.3244 70.5717H72.5014C72.5014 71.049 72.6009 71.4469 72.7998 71.8049M61.6014 69.6766C61.6014 69.9153 61.5815 70.2534 61.5218 70.6711C61.4622 71.0888 61.3229 71.4866 61.1041 71.9043C60.8853 72.3022 60.5273 72.6602 60.0499 72.9386C59.5726 73.237 58.8963 73.3762 58.041 73.3762C57.683 73.3762 57.3448 73.3365 57.0266 73.2768C56.6884 73.2171 56.41 73.0978 56.1514 72.9585C55.9127 72.7994 55.7138 72.6005 55.5547 72.322C55.3955 72.0436 55.3359 71.7253 55.3359 71.3275C55.3359 70.9098 55.4154 70.5717 55.5547 70.3131C55.6939 70.0545 55.8928 69.8158 56.1315 69.6567C56.3702 69.4777 56.6486 69.3385 56.9669 69.239C57.2851 69.1396 57.6233 69.06 57.9415 69.0003C58.2996 68.9406 58.6377 68.881 58.9957 68.8412C59.3538 68.8014 59.672 68.7417 59.9903 68.6821C60.3085 68.6224 60.6069 68.5428 60.8853 68.4434C61.1638 68.3439 61.4025 68.2246 61.5815 68.0456V69.6766H61.6014ZM55.853 64.7835C55.9326 63.9083 56.2309 63.2917 56.7282 62.9337C57.2255 62.5558 57.9017 62.3768 58.7769 62.3768C59.1747 62.3768 59.5328 62.3967 59.8709 62.4563C60.2091 62.516 60.5074 62.6155 60.766 62.7746C61.0246 62.9337 61.2235 63.1525 61.3826 63.431C61.5417 63.7094 61.6213 64.0874 61.6213 64.5647C61.6412 65.0222 61.5019 65.3604 61.2235 65.599C60.9251 65.8377 60.5472 66.0167 60.0499 66.1361C59.5527 66.2554 58.9957 66.3549 58.3393 66.4145C57.7028 66.4742 57.0465 66.5538 56.3901 66.6532C55.7337 66.7527 55.0773 66.8919 54.4209 67.0709C53.7645 67.25 53.1877 67.5085 52.6904 67.8666C52.1932 68.2246 51.7755 68.6821 51.4572 69.2788C51.139 69.8755 50.9798 70.6115 50.9798 71.5264C50.9798 72.3618 51.1191 73.058 51.3975 73.6547C51.676 74.2514 52.0738 74.7487 52.5512 75.1465C53.0485 75.5443 53.6253 75.8228 54.2817 76.0217C54.9381 76.2206 55.6541 76.3002 56.41 76.3002C57.4045 76.3002 58.3791 76.1609 59.314 75.8626C60.2687 75.5642 61.0842 75.0669 61.8003 74.3509C61.8202 74.6095 61.86 74.8879 61.8998 75.1465C61.9594 75.4051 62.0191 75.6637 62.0987 75.9023H66.5541C66.3552 75.5642 66.1961 75.0669 66.1165 74.4106C66.037 73.7542 65.9972 73.058 65.9972 72.3419V64.0078C65.9972 63.0332 65.7784 62.2574 65.3408 61.6607C64.9032 61.0839 64.3463 60.6065 63.67 60.2883C62.9937 59.9501 62.2379 59.7313 61.4025 59.6319C60.5671 59.5125 59.7715 59.4529 58.956 59.4529C58.0609 59.4529 57.1857 59.5324 56.3105 59.7114C55.4353 59.8905 54.6397 60.1888 53.9435 60.5866C53.2474 60.9844 52.6705 61.5414 52.2131 62.2176C51.7556 62.8939 51.497 63.7492 51.4373 64.7835H55.8331H55.853ZM39.0455 71.9043C39.2444 72.2425 39.503 72.5209 39.8013 72.7397C40.1196 72.9585 40.4577 73.1177 40.8754 73.2171C41.2733 73.3166 41.691 73.3762 42.1285 73.3762C42.4468 73.3762 42.765 73.3365 43.1032 73.2569C43.4413 73.1972 43.7596 73.0779 44.038 72.9188C44.3165 72.7596 44.5552 72.5607 44.7342 72.3022C44.9132 72.0436 45.0127 71.7253 45.0127 71.3275C45.0127 70.6711 44.5751 70.1739 43.6999 69.8357C42.8247 69.4976 41.6114 69.1793 40.04 68.8412C39.4035 68.702 38.767 68.5229 38.1703 68.324C37.5537 68.1251 37.0167 67.8666 36.5393 67.5483C36.0619 67.2301 35.684 66.8322 35.3857 66.335C35.0873 65.8576 34.9481 65.2609 34.9481 64.5448C34.9481 63.5105 35.147 62.6751 35.5448 61.9988C35.9426 61.3226 36.4796 60.8253 37.136 60.4275C37.7924 60.0496 38.5482 59.7711 39.3638 59.6319C40.1992 59.4727 41.0346 59.3932 41.9097 59.3932C42.7849 59.3932 43.6203 59.4727 44.4358 59.6319C45.2514 59.791 45.9873 60.0695 46.6238 60.4673C47.2603 60.8651 47.7974 61.3822 48.2151 62.0386C48.6328 62.695 48.8913 63.5105 48.9709 64.5051H44.7939C44.7342 63.6498 44.416 63.0928 43.8391 62.7945C43.2623 62.4961 42.586 62.337 41.7904 62.337C41.5517 62.337 41.2733 62.337 40.9948 62.3768C40.6964 62.4166 40.4378 62.4762 40.1992 62.5757C39.9605 62.6751 39.7616 62.8343 39.6024 63.0133C39.4433 63.2122 39.3638 63.4708 39.3638 63.8089C39.3638 64.2067 39.503 64.525 39.8013 64.7636C40.0997 65.0023 40.4577 65.2211 40.9351 65.3604C41.4125 65.4996 41.9296 65.6587 42.5264 65.7781C43.1231 65.8974 43.7397 66.0366 44.3563 66.1759C44.9928 66.3151 45.6094 66.4941 46.226 66.693C46.8426 66.8919 47.3797 67.1704 47.857 67.5085C48.3344 67.8467 48.7123 68.2644 49.0107 68.7815C49.309 69.2987 49.4483 69.9153 49.4483 70.6512C49.4483 71.7054 49.2295 72.5806 48.8118 73.2967C48.3941 74.0127 47.8371 74.5697 47.1609 75.0073C46.4846 75.4449 45.7088 75.7432 44.8138 75.9222C43.9386 76.1012 43.0435 76.1808 42.1285 76.1808C41.2136 76.1808 40.2986 76.0814 39.4035 75.9023C38.5085 75.7233 37.7327 75.4051 37.0366 74.9675C36.3404 74.5299 35.7835 73.973 35.326 73.2569C34.8685 72.5408 34.6497 71.6458 34.6099 70.5717H38.7869C38.7869 71.049 38.8864 71.4469 39.0853 71.8049M27.8869 69.6766C27.8869 69.9153 27.867 70.2534 27.8073 70.6711C27.7477 71.0888 27.6084 71.4866 27.3896 71.9043C27.1709 72.3022 26.8128 72.6602 26.3354 72.9386C25.8581 73.237 25.1818 73.3762 24.3265 73.3762C23.9685 73.3762 23.6303 73.3365 23.3121 73.2768C22.9739 73.2171 22.6955 73.0978 22.4369 72.9585C22.1982 72.7994 21.9993 72.6005 21.8402 72.322C21.6811 72.0436 21.6214 71.7253 21.6214 71.3275C21.6214 70.9098 21.7009 70.5717 21.8402 70.3131C21.9794 70.0545 22.1783 69.8158 22.417 69.6567C22.6557 69.4777 22.9342 69.3385 23.2524 69.239C23.5707 69.1396 23.9088 69.06 24.2271 69.0003C24.5851 68.9406 24.9232 68.881 25.2812 68.8412C25.6393 68.8014 25.9575 68.7417 26.2758 68.6821C26.594 68.6224 26.8924 68.5428 27.1709 68.4434C27.4493 68.3439 27.688 68.2246 27.867 68.0456V69.6766H27.8869ZM22.1385 64.7835C22.2181 63.9083 22.5165 63.2917 23.0137 62.9337C23.511 62.5558 24.1873 62.3768 25.0625 62.3768C25.4603 62.3768 25.8183 62.3967 26.1564 62.4563C26.4946 62.516 26.7929 62.6155 27.0515 62.7746C27.3101 62.9337 27.509 63.1525 27.6681 63.431C27.8272 63.7094 27.9068 64.0874 27.9068 64.5647C27.9267 65.0222 27.7875 65.3604 27.509 65.599C27.2106 65.8377 26.8327 66.0167 26.3354 66.1361C25.8382 66.2554 25.2812 66.3549 24.6249 66.4145C23.9884 66.4742 23.332 66.5538 22.6756 66.6532C22.0192 66.7527 21.3628 66.8919 20.7064 67.0709C20.05 67.25 19.4732 67.5085 18.9759 67.8666C18.4787 68.2246 18.061 68.6821 17.7427 69.2788C17.4245 69.8755 17.2654 70.6115 17.2654 71.5264C17.2654 72.3618 17.4046 73.058 17.6831 73.6547C17.9615 74.2514 18.3593 74.7487 18.8367 75.1465C19.334 75.5443 19.9108 75.8228 20.5672 76.0217C21.2236 76.2206 21.9396 76.3002 22.6955 76.3002C23.69 76.3002 24.6646 76.1609 25.5995 75.8626C26.5542 75.5642 27.3698 75.0669 28.0858 74.3509C28.1057 74.6095 28.1455 74.8879 28.1853 75.1465C28.2449 75.4051 28.3046 75.6637 28.3842 75.9023H32.8397C32.6408 75.5642 32.4816 75.0669 32.4021 74.4106C32.3225 73.7542 32.2827 73.058 32.2827 72.3419V64.0078C32.2827 63.0332 32.0639 62.2574 31.6263 61.6607C31.1887 61.0839 30.6318 60.6065 29.9555 60.2883C29.2793 59.97 28.5234 59.7313 27.688 59.6319C26.8526 59.5125 26.057 59.4529 25.2415 59.4529C24.3464 59.4529 23.4712 59.5324 22.596 59.7114C21.7208 59.8905 20.9252 60.1888 20.229 60.5866C19.5329 60.9844 18.9561 61.5414 18.4986 62.2176C18.0411 62.8939 17.7825 63.7492 17.7228 64.7835H22.1187H22.1385ZM8.1356 62.7547C7.43943 62.7547 6.84271 62.9138 6.36534 63.2321C5.88796 63.5503 5.51004 63.968 5.21168 64.4653C4.91332 64.9824 4.69453 65.5394 4.57519 66.1361C4.45584 66.7527 4.39617 67.3494 4.39617 67.9461C4.39617 68.5428 4.45584 69.1197 4.57519 69.7164C4.69453 70.3131 4.89343 70.8501 5.1719 71.3474C5.45037 71.8447 5.82829 72.2226 6.30566 72.5408C6.78304 72.8591 7.35986 72.9983 8.03614 72.9983C9.09034 72.9983 9.90585 72.7 10.4628 72.1231C11.0396 71.5264 11.3976 70.7507 11.5369 69.7562H15.7736C15.4752 71.8845 14.6597 73.4956 13.2872 74.6095C11.9347 75.7233 10.1843 76.2803 8.05603 76.2803C6.8626 76.2803 5.74873 76.0814 4.7542 75.6835C3.75967 75.2857 2.90438 74.7089 2.20821 73.9929C1.51204 73.2768 0.955106 72.4016 0.577185 71.4071C0.179374 70.4126 -0.0195312 69.2987 -0.0195312 68.1053C-0.0195312 66.9118 0.159484 65.7184 0.517514 64.6443C0.875543 63.5901 1.41259 62.6552 2.10876 61.8994C2.80493 61.1237 3.66022 60.5269 4.67464 60.0894C5.68906 59.6518 6.84271 59.433 8.1356 59.433C9.09034 59.433 10.0053 59.5523 10.8805 59.8109C11.7557 60.0496 12.5513 60.4275 13.2276 60.9446C13.9237 61.4618 14.4807 62.0784 14.9183 62.8343C15.3559 63.5901 15.5946 64.4852 15.6542 65.5195H11.3579C11.0595 63.6895 9.98542 62.7547 8.1157 62.7547" fill="#1D1D1B"/>
<path d="M182.874 28.9208V31.8845H182.934C183.133 31.3873 183.411 30.9298 183.769 30.5121C184.127 30.0944 184.525 29.7364 184.982 29.438C185.44 29.1396 185.917 28.901 186.434 28.7418C186.952 28.5827 187.489 28.5031 188.046 28.5031C188.344 28.5031 188.662 28.5628 189 28.6623V32.7398C188.801 32.7001 188.543 32.6603 188.264 32.6205C187.966 32.6006 187.688 32.5807 187.429 32.5807C186.633 32.5807 185.937 32.7199 185.38 32.9785C184.823 33.2371 184.386 33.615 184.028 34.0725C183.69 34.53 183.451 35.0869 183.292 35.7035C183.133 36.3201 183.073 36.9964 183.073 37.7125V44.9327H178.677V28.9208H182.854H182.874ZM165.987 41.074C166.643 41.7105 167.598 42.0287 168.831 42.0287C169.726 42.0287 170.482 41.8099 171.119 41.3723C171.755 40.9347 172.153 40.4574 172.292 39.9601H176.171C175.554 41.8696 174.6 43.242 173.327 44.0774C172.054 44.9129 170.502 45.3107 168.692 45.3107C167.439 45.3107 166.305 45.1118 165.291 44.7139C164.276 44.3161 163.421 43.7393 162.725 43.0034C162.029 42.2674 161.492 41.3723 161.094 40.338C160.716 39.3037 160.517 38.17 160.517 36.9367C160.517 35.7035 160.716 34.6294 161.114 33.5951C161.512 32.5608 162.069 31.6657 162.785 30.9099C163.501 30.1541 164.376 29.5573 165.37 29.1396C166.365 28.7021 167.479 28.4833 168.692 28.4833C170.045 28.4833 171.238 28.7418 172.252 29.2789C173.267 29.8159 174.102 30.5121 174.739 31.4072C175.395 32.3022 175.853 33.2968 176.151 34.4504C176.449 35.6041 176.549 36.7776 176.469 38.0108H164.933C164.992 39.443 165.35 40.4574 166.007 41.1138M170.94 32.6603C170.423 32.0834 169.607 31.7851 168.533 31.7851C167.837 31.7851 167.26 31.9044 166.783 32.1431C166.325 32.3818 165.947 32.6802 165.669 33.0183C165.39 33.3564 165.191 33.7344 165.072 34.1322C164.953 34.53 164.893 34.8681 164.873 35.1864H172.014C171.815 34.0725 171.437 33.2172 170.92 32.6404M159.503 28.9208V31.8647H156.28V39.7811C156.28 40.517 156.4 41.0143 156.658 41.2729C156.897 41.5116 157.394 41.6508 158.15 41.6508C158.389 41.6508 158.627 41.6508 158.866 41.611C159.085 41.5911 159.304 41.5513 159.523 41.5116V44.9129C159.145 44.9725 158.747 45.0123 158.289 45.0322C157.832 45.0521 157.394 45.072 156.957 45.072C156.28 45.072 155.624 45.0322 155.027 44.9327C154.411 44.8532 153.874 44.6543 153.416 44.3957C152.959 44.1371 152.581 43.7393 152.322 43.242C152.064 42.7448 151.924 42.0884 151.924 41.2928V31.8448H149.259V28.901H151.924V24.1073H156.32V28.901H159.542L159.503 28.9208ZM143.192 28.9208V31.8845H143.252C143.451 31.3873 143.729 30.9298 144.087 30.5121C144.426 30.0944 144.843 29.7364 145.301 29.438C145.758 29.1396 146.236 28.901 146.753 28.7418C147.27 28.5827 147.807 28.5031 148.364 28.5031C148.642 28.5031 148.961 28.5628 149.319 28.6623V32.7398C149.1 32.7001 148.861 32.6603 148.583 32.6205C148.284 32.6006 148.006 32.5807 147.747 32.5807C146.952 32.5807 146.256 32.7199 145.699 32.9785C145.142 33.2371 144.684 33.615 144.346 34.0725C144.008 34.53 143.769 35.0869 143.63 35.7035C143.491 36.3201 143.411 36.9964 143.411 37.7125V44.9327H139.015V28.9208H143.192ZM120.537 33.4559C120.935 32.4216 121.492 31.5265 122.208 30.7906C122.924 30.0546 123.799 29.4778 124.814 29.08C125.828 28.6822 126.962 28.4833 128.215 28.4833C129.468 28.4833 130.622 28.6822 131.636 29.08C132.65 29.4778 133.526 30.0546 134.262 30.7906C134.978 31.5265 135.535 32.4017 135.932 33.4559C136.33 34.4902 136.529 35.6637 136.529 36.9367C136.529 38.2097 136.33 39.3634 135.932 40.3977C135.535 41.432 134.978 42.3072 134.262 43.0431C133.545 43.7791 132.67 44.336 131.636 44.7338C130.622 45.1316 129.468 45.3306 128.215 45.3306C126.962 45.3306 125.808 45.1316 124.814 44.7338C123.799 44.336 122.944 43.7791 122.208 43.0431C121.492 42.3072 120.935 41.432 120.537 40.3977C120.139 39.3634 119.94 38.2097 119.94 36.9367C119.94 35.6637 120.139 34.4902 120.537 33.4559ZM124.535 38.8065C124.654 39.4231 124.873 39.9601 125.172 40.4574C125.47 40.9347 125.868 41.3326 126.365 41.611C126.862 41.9094 127.479 42.0486 128.215 42.0486C128.951 42.0486 129.587 41.9094 130.085 41.611C130.582 41.3127 130.999 40.9347 131.298 40.4574C131.596 39.98 131.815 39.4231 131.934 38.8065C132.054 38.2097 132.113 37.5732 132.113 36.9367C132.113 36.3002 132.054 35.6637 131.934 35.0471C131.815 34.4305 131.596 33.8736 131.298 33.4161C130.999 32.9387 130.602 32.5608 130.085 32.2625C129.587 31.9641 128.951 31.8249 128.215 31.8249C127.479 31.8249 126.862 31.984 126.365 32.2625C125.868 32.5608 125.47 32.9586 125.172 33.4161C124.873 33.8935 124.654 34.4305 124.535 35.0471C124.416 35.6637 124.356 36.3002 124.356 36.9367C124.356 37.5732 124.416 38.2097 124.535 38.8065ZM106.057 28.9208V30.9696H106.116C106.653 30.0944 107.33 29.4778 108.165 29.08C109.001 28.6822 109.896 28.4833 110.89 28.4833C112.143 28.4833 113.237 28.7219 114.132 29.1993C115.047 29.6767 115.803 30.3132 116.4 31.0889C116.997 31.8647 117.434 32.7796 117.732 33.8338C118.031 34.888 118.17 35.9621 118.17 37.0959C118.17 38.17 118.031 39.2043 117.732 40.1988C117.434 41.1933 116.997 42.0685 116.42 42.8243C115.843 43.5802 115.107 44.1968 114.232 44.6543C113.357 45.1118 112.322 45.3306 111.149 45.3306C110.154 45.3306 109.239 45.1316 108.404 44.7338C107.568 44.336 106.892 43.7393 106.355 42.9437H106.295V50.522H101.9V28.9208H106.077H106.057ZM111.765 41.611C112.243 41.3127 112.641 40.9347 112.939 40.4773C113.237 39.9999 113.456 39.4628 113.575 38.8462C113.695 38.2296 113.754 37.5931 113.754 36.9566C113.754 36.3201 113.695 35.6836 113.555 35.067C113.416 34.4504 113.197 33.8935 112.899 33.4161C112.581 32.9387 112.183 32.5409 111.706 32.2426C111.228 31.9442 110.632 31.805 109.935 31.805C109.239 31.805 108.603 31.9641 108.125 32.2426C107.648 32.5409 107.25 32.9387 106.952 33.3962C106.653 33.8736 106.435 34.4106 106.315 35.0272C106.196 35.6439 106.136 36.2804 106.136 36.9367C106.136 37.5931 106.196 38.2097 106.335 38.8263C106.474 39.443 106.693 39.98 106.992 40.4574C107.29 40.9149 107.688 41.2928 108.185 41.5911C108.682 41.8895 109.279 42.0287 109.975 42.0287C110.671 42.0287 111.308 41.8895 111.785 41.5911M98.8961 38.349H89.5874V34.5698H98.8961V38.349ZM73.9136 20.6066L78.9658 26.0765H82.029L78.747 20.6066H73.9136ZM82.1483 38.7269C82.1483 38.9656 82.1284 39.3037 82.0687 39.7214C82.0091 40.1391 81.8698 40.5369 81.651 40.9347C81.4322 41.3326 81.0742 41.6906 80.5968 41.9691C80.1195 42.2475 79.4432 42.4066 78.5879 42.4066C78.2299 42.4066 77.8917 42.3669 77.5735 42.3072C77.2353 42.2475 76.9569 42.1282 76.6983 41.9889C76.4596 41.8298 76.2607 41.6309 76.1016 41.3524C75.9623 41.0939 75.8828 40.7557 75.8828 40.3579C75.8828 39.9402 75.9623 39.6021 76.1016 39.3435C76.2408 39.0849 76.4397 38.8462 76.6784 38.6871C76.9171 38.528 77.1956 38.3689 77.5138 38.2694C77.8321 38.17 78.1702 38.0904 78.4884 38.0307C78.8465 37.9711 79.1846 37.9114 79.5426 37.8716C79.9007 37.8318 80.2189 37.7721 80.5372 37.7125C80.8554 37.6528 81.1538 37.5732 81.4322 37.4738C81.7107 37.3743 81.9494 37.255 82.1284 37.076V38.707L82.1483 38.7269ZM76.3999 33.8338C76.4795 32.9586 76.7778 32.342 77.2751 31.984C77.7724 31.6061 78.4487 31.4271 79.3238 31.4271C79.7217 31.4271 80.0797 31.4469 80.4178 31.5066C80.756 31.5663 81.0543 31.6657 81.3129 31.805C81.5715 31.9641 81.7704 32.1829 81.9295 32.4614C82.0886 32.7398 82.1682 33.1178 82.1682 33.5951C82.1881 34.0526 82.0489 34.3907 81.7704 34.6294C81.472 34.8681 81.0941 35.0471 80.5968 35.1665C80.0996 35.2858 79.5426 35.3853 78.8863 35.4449C78.2498 35.5046 77.5934 35.5842 76.937 35.6836C76.2806 35.7831 75.6242 35.9223 74.9678 36.1013C74.3114 36.2804 73.7346 36.5389 73.2373 36.897C72.7401 37.255 72.3224 37.7125 72.0041 38.3092C71.6859 38.9059 71.5267 39.6419 71.5267 40.5568C71.5267 41.3922 71.666 42.0884 71.9444 42.6851C72.2229 43.2818 72.6207 43.7791 73.0981 44.1769C73.5954 44.5747 74.1722 44.8532 74.8286 45.0521C75.485 45.2311 76.201 45.3306 76.9569 45.3306C77.9514 45.3306 78.926 45.1913 79.8609 44.893C80.8156 44.5946 81.6311 44.0973 82.3472 43.3813C82.3671 43.6399 82.4069 43.9183 82.4467 44.1769C82.5063 44.4355 82.566 44.6941 82.6456 44.9327H87.1011C86.9021 44.5946 86.743 44.0973 86.6635 43.441C86.5839 42.7846 86.5441 42.0884 86.5441 41.3723V33.0382C86.5441 32.0636 86.3253 31.2878 85.8877 30.6911C85.4501 30.1143 84.8932 29.6369 84.2169 29.3187C83.5406 28.9805 82.7848 28.7617 81.9494 28.6623C81.114 28.5429 80.3184 28.4833 79.5029 28.4833C78.6078 28.4833 77.7326 28.5628 76.8574 28.7418C75.9822 28.9208 75.1866 29.2192 74.4904 29.617C73.7943 30.0347 73.2174 30.5718 72.76 31.248C72.3025 31.9243 72.0439 32.7796 71.9842 33.8139H76.38L76.3999 33.8338ZM69.2194 38.349H59.9107V34.5698H69.2194V38.349ZM58.1603 28.9208V31.8647H54.938V39.7811C54.938 40.517 55.0574 41.0143 55.3159 41.2729C55.5546 41.5116 56.0519 41.6508 56.8077 41.6508C57.0464 41.6508 57.2851 41.6508 57.5238 41.611C57.7625 41.5712 57.9614 41.5513 58.1802 41.5116V44.9129C57.8023 44.9725 57.4045 45.0123 56.947 45.0322C56.4895 45.0521 56.0519 45.072 55.6143 45.072C54.938 45.072 54.2816 45.0322 53.6849 44.9327C53.0683 44.8532 52.5313 44.6543 52.0738 44.3957C51.6163 44.1371 51.2384 43.7393 50.9798 43.242C50.7212 42.7448 50.582 42.0884 50.582 41.2928V31.8448H47.9167V28.901H50.582V24.1073H54.9778V28.901H58.2001L58.1603 28.9208ZM36.6586 41.074C37.315 41.7105 38.2697 42.0287 39.503 42.0287C40.398 42.0287 41.1539 41.8099 41.7904 41.3723C42.4269 40.9347 42.8247 40.4574 42.9639 39.9601H46.8426C46.226 41.8696 45.2712 43.242 43.9982 44.0774C42.7252 44.9129 41.1738 45.3107 39.3637 45.3107C38.1106 45.3107 36.9769 45.1118 35.9624 44.7139C34.948 44.3161 34.0927 43.7393 33.3966 43.0034C32.7004 42.2674 32.1435 41.3723 31.7655 40.338C31.3876 39.3037 31.1887 38.17 31.1887 36.9367C31.1887 35.7035 31.3876 34.6294 31.7854 33.5951C32.1832 32.5608 32.7402 31.6657 33.4562 30.9099C34.1723 30.1541 35.0475 29.5573 36.042 29.1396C37.0365 28.7021 38.1504 28.4833 39.3637 28.4833C40.7163 28.4833 41.9097 28.7418 42.9241 29.2789C43.9386 29.796 44.774 30.5121 45.4105 31.4072C46.0668 32.3022 46.5243 33.2968 46.8227 34.4504C47.121 35.5842 47.2205 36.7776 47.1409 38.0108H35.6044C35.6641 39.443 36.0221 40.4574 36.6785 41.1138M41.6114 32.6603C41.0942 32.0834 40.2787 31.7851 39.2046 31.7851C38.5084 31.7851 37.9117 31.9044 37.4542 32.1431C36.9968 32.3818 36.6188 32.6802 36.3404 33.0183C36.0619 33.3763 35.863 33.7344 35.7436 34.1322C35.6243 34.53 35.5646 34.8681 35.5447 35.1864H42.6854C42.4865 34.0725 42.1086 33.2172 41.5915 32.6404M24.9829 28.9208V31.8845H25.0425C25.2414 31.3873 25.5199 30.9298 25.8779 30.5121C26.236 30.0944 26.6338 29.7364 27.0913 29.438C27.5487 29.1396 28.0261 28.901 28.5433 28.7418C29.0604 28.5827 29.5975 28.5031 30.1544 28.5031C30.4528 28.5031 30.771 28.5628 31.1092 28.6623V32.7398C30.9102 32.7001 30.6517 32.6603 30.3732 32.6205C30.0748 32.6006 29.7964 32.5807 29.5378 32.5807C28.7422 32.5807 28.046 32.7199 27.4891 32.9785C26.9321 33.2371 26.4747 33.615 26.1365 34.0725C25.7984 34.53 25.5597 35.0869 25.4205 35.7035C25.2812 36.3201 25.2017 36.9964 25.2017 37.7125V44.9327H20.8058V28.9208H24.9829ZM10.9202 22.8145C12.3126 22.8145 13.4861 23.0134 14.4409 23.4112C15.4155 23.809 16.1912 24.346 16.8078 25.0024C17.4046 25.6588 17.862 26.4146 18.1405 27.2699C18.419 28.1252 18.5582 29.0004 18.5582 29.8955C18.5582 30.7906 18.419 31.6657 18.1405 32.521C17.862 33.3763 17.4245 34.1322 16.8078 34.7886C16.1912 35.4449 15.4155 35.982 14.4409 36.3798C13.4662 36.7776 12.2927 36.9765 10.9202 36.9765H5.80837V44.893H0.955078V22.7946H10.9202V22.8145ZM9.58758 33.2172C10.1445 33.2172 10.6816 33.1774 11.1987 33.0979C11.7159 33.0183 12.1733 32.8592 12.5513 32.6205C12.9491 32.3818 13.2474 32.0437 13.506 31.626C13.7447 31.1884 13.864 30.6314 13.864 29.9154C13.864 29.1993 13.7447 28.6424 13.506 28.2048C13.2673 27.7672 12.9491 27.4291 12.5513 27.1904C12.1535 26.9517 11.696 26.7926 11.1987 26.713C10.7014 26.6334 10.1445 26.5937 9.58758 26.5937H5.80837V33.2172H9.58758Z" fill="#1D1D1B"/>
<path d="M51.556 19.075L37.5133 4.77373L23.9082 19.075L20.666 15.992L35.8823 0.0198906L39.0847 0L54.7385 15.9522L51.556 19.075Z" fill="#1D1D1B"/>
</g>
<defs>
<clipPath id="clip0_66_55">
<rect width="189" height="76.2803" fill="white"/>
</clipPath>
</defs>
</svg>
