<svg width="1009" height="198" viewBox="0 0 1009 198" fill="none" xmlns="http://www.w3.org/2000/svg">
<g clip-path="url(#clip0_66_100)">
<path d="M15.2022 107.178H42.3695C44.6754 107.178 45.6625 108.322 45.3348 110.614L44.5116 115.031C44.016 117.323 42.7012 118.629 40.3953 118.629H3.18506C0.879148 118.629 -0.271808 117.319 0.0558948 115.031L19.9778 3.59414C20.3055 1.30225 21.7882 0.158295 24.0941 0.158295H30.6801C32.986 0.158295 33.9731 1.30225 33.6454 3.59414L15.2062 107.178H15.2022Z" fill="#E4FE00"/>
<path d="M90.6057 115.361L91.1012 92.9426H68.218L60.9726 115.361C60.3132 117.49 58.9984 118.634 56.8563 118.634H49.7787C47.4728 118.634 46.4857 116.835 47.1451 114.543L84.0197 3.75759C84.8429 1.30285 86.3256 0.15889 88.6315 0.15889H103.45C105.756 0.15889 106.743 1.30285 106.579 3.75759L104.109 114.543C104.109 116.997 102.627 118.634 100.321 118.634H93.571C91.7606 118.634 90.4418 117.49 90.6057 115.361ZM71.8347 81.4871H91.5928L92.7438 43.3592L94.5541 11.6144H93.7309L84.3474 43.3592L71.8347 81.4871Z" fill="#E4FE00"/>
<path d="M186.754 78.7067C189.06 78.7067 190.047 79.8506 189.72 82.1425L188.897 86.5595C188.569 88.8513 187.086 90.1582 184.78 90.1582H157.613L150.204 132.214H170.949C173.255 132.214 174.406 133.358 174.078 135.65L173.255 140.067C172.759 142.359 171.28 143.666 168.975 143.666H148.066L139.341 193.575C138.846 195.867 137.531 197.174 135.225 197.174H128.639C126.333 197.174 125.182 195.863 125.51 193.575L145.432 82.1385C145.76 79.8467 147.242 78.7027 149.548 78.7027H186.758L186.754 78.7067Z" fill="#E4FE00"/>
<path d="M206.181 193.909L206.676 171.49H183.793L176.548 193.909C175.888 196.038 174.574 197.182 172.431 197.182H165.354C163.048 197.182 162.061 195.382 162.72 193.09L199.599 82.3054C200.422 79.8506 201.905 78.7067 204.211 78.7067H219.029C221.335 78.7067 222.322 79.8506 222.158 82.3054L219.689 193.09C219.689 195.545 218.206 197.182 215.9 197.182H209.15C207.34 197.182 206.021 196.038 206.185 193.909H206.181ZM187.41 160.035H207.168L208.319 121.907L210.129 90.1621H209.306L199.923 121.907L187.41 160.035Z" fill="#E4FE00"/>
<path d="M289.813 121.089C289.318 123.381 287.839 124.687 285.533 124.687H278.947C276.641 124.687 275.654 123.377 275.982 121.089L279.439 101.943C280.922 94.0905 279.439 89.3439 270.055 89.3439C260.672 89.3439 257.87 94.0905 256.392 101.943L243.551 173.945C242.233 181.798 243.388 186.545 252.771 186.545C262.155 186.545 265.284 181.798 266.766 173.945L270.223 154.637C270.551 152.345 272.034 151.201 274.339 151.201H280.926C283.231 151.201 284.219 152.345 283.891 154.637L280.434 173.945C277.636 189.492 270.719 198 250.965 198C231.211 198 227.09 189.492 229.892 173.945L242.568 101.943C245.366 86.3966 252.447 77.8884 272.201 77.8884C291.956 77.8884 296.076 86.3966 293.274 101.943L289.817 121.089H289.813Z" fill="#E4FE00"/>
<path d="M336.407 90.1621L318.131 193.583C317.636 195.875 316.321 197.182 314.015 197.182H307.429C305.123 197.182 303.972 195.871 304.3 193.583L322.739 90.1621H303.804C301.498 90.1621 300.511 88.8513 301.007 86.5634L301.83 82.1465C302.158 79.8546 303.64 78.7106 305.946 78.7106H357.316C359.622 78.7106 360.609 79.8546 360.281 82.1465L359.458 86.5634C359.13 88.8553 357.647 90.1621 355.342 90.1621H336.407Z" fill="#E4FE00"/>
<path d="M414.112 101.943L401.272 173.945C398.474 189.492 391.557 198 371.803 198C352.048 198 347.928 189.492 350.73 173.945L363.406 101.943C366.204 86.3966 373.285 77.8884 393.043 77.8884C412.801 77.8884 416.918 86.3966 414.116 101.943H414.112ZM377.234 101.943L364.393 173.945C363.074 181.798 364.229 186.545 373.613 186.545C382.996 186.545 386.126 181.798 387.608 173.945L400.285 101.943C401.767 94.0905 400.285 89.3439 390.901 89.3439C381.518 89.3439 378.716 94.0905 377.238 101.943H377.234Z" fill="#E4FE00"/>
<path d="M454.284 143.181L464.491 192.602C464.819 194.564 463.668 197.019 460.87 197.186H454.12C452.31 197.186 451.155 196.367 450.827 194.731L440.785 144.822H433.375L424.815 193.587C424.32 195.879 423.005 197.186 420.699 197.186H414.113C411.807 197.186 410.656 195.875 410.984 193.587L430.906 82.1504C431.233 79.8586 432.716 78.7146 435.022 78.7146H453.461C475.03 78.7146 479.146 88.041 476.181 104.899L473.711 118.646C471.405 131.738 466.797 140.246 454.284 143.193V143.181ZM443.746 133.362C454.94 133.362 458.401 127.964 460.047 118.634L462.517 104.887C464 95.723 462.517 90.1581 451.323 90.1581H443.091L435.517 133.358H443.75L443.746 133.362Z" fill="#E4FE00"/>
<path d="M487.374 193.583C486.878 195.875 485.563 197.182 483.257 197.182H476.671C474.365 197.182 473.215 195.871 473.542 193.583L493.464 82.1465C493.792 79.8546 495.274 78.7106 497.58 78.7106H504.166C506.472 78.7106 507.459 79.8546 507.132 82.1465L487.374 193.583ZM497.748 72.4904C495.774 73.1458 494.619 72.9829 493.632 71.1796L492.645 68.7248C491.822 67.0883 492.317 65.6147 494.128 64.6336L519.481 50.2348C521.291 49.2537 522.774 49.7423 523.761 51.5456L526.067 56.7808C527.054 58.5802 526.394 60.2167 524.584 61.0349L497.748 72.4904Z" fill="#E4FE00"/>
<path d="M539.235 193.909L539.73 171.49H516.847L509.601 193.909C508.942 196.038 507.627 197.182 505.485 197.182H498.408C496.102 197.182 495.115 195.382 495.774 193.09L532.653 82.3054C533.476 79.8506 534.958 78.7067 537.264 78.7067H552.083C554.389 78.7067 555.376 79.8506 555.212 82.3054L552.742 193.09C552.742 195.545 551.26 197.182 548.954 197.182H542.204C540.394 197.182 539.075 196.038 539.239 193.909H539.235ZM520.468 160.035H540.226L541.377 121.907L543.187 90.1621H542.364L532.98 121.907L520.468 160.035Z" fill="#E4FE00"/>
<path d="M910.986 33.4846C922.979 33.4846 934.393 33.4846 945.747 33.5203C947.313 33.5203 948.888 33.9573 950.466 34.2035C965.137 36.6543 976.451 48.9598 977.054 63.156C977.782 80.1763 968.578 93.8601 952.896 97.1093C945.271 98.6505 937.163 97.8918 929.25 98.2175C927.272 98.293 925.345 98.2175 923.479 98.2175V131.635C934.545 131.086 945.383 131.77 955.762 129.867C992.552 123.023 1015.24 87.7034 1007.26 50.8386C1001.25 22.8196 976.027 1.14794 947.537 0.365436C925.417 -0.218459 903.337 0.143 881.257 0.143C880.394 0.143 879.531 0.365436 878.28 0.504459V191.081C878.28 191.939 878.356 192.836 878.244 193.706C877.892 196.554 879.147 197.488 881.937 197.412C889.885 197.277 897.822 197.376 905.807 197.376H910.99V33.4846H910.986ZM839.987 197.09H873.344V0.0675306C863.469 0.0675306 853.906 0.254218 844.391 0.00397738C841.022 -0.071492 839.347 1.01288 837.805 4.1111C817.827 44.1099 797.685 84.0332 777.571 123.996C776.96 125.303 776.244 126.558 775.569 127.853C775.245 127.778 774.918 127.678 774.566 127.567V0.103279C763.788 0.103279 753.413 0.0397261 742.999 0.214497C741.884 0.250246 740.345 1.75566 739.706 2.95126C735.737 10.5141 731.969 18.1802 728.076 25.8185C726.673 28.6943 725.135 31.5025 723.496 34.7001C722.593 33.2939 722.058 32.436 721.518 31.6018C709.249 12.3055 691.925 1.10821 669.094 0.361464C646.826 -0.321733 624.57 0.174777 602.274 0.139028C601.775 0.139028 601.271 0.460766 600.812 0.575956V197.051H632.842V34.2035C646.438 34.2035 659.606 33.2344 672.598 34.4538C687.381 35.7844 698.259 48.5745 699.262 64.2245C700.125 77.0503 693.068 90.7619 678.469 96.1242C674.389 97.6058 669.769 97.8918 665.337 98.1142C658.639 98.4002 651.881 98.1778 645.295 98.1778V130.8H675.388C664.362 152.873 653.344 174.767 641.99 197.376C652.269 197.376 661.792 197.202 671.268 197.452C674.637 197.563 676.311 196.518 677.854 193.42C697.896 153.27 718.085 113.196 738.263 73.0862C738.914 71.7555 739.666 70.4249 740.377 69.0943C740.665 69.1697 740.952 69.2452 741.24 69.3167V197.376C751.155 197.376 760.531 197.202 769.906 197.488C773.523 197.599 775.165 196.292 776.74 193.17C796.818 153.02 816.995 112.946 837.225 72.8359C837.865 71.5411 838.552 70.2859 839.267 68.9791C839.479 69.0903 839.731 69.2015 839.983 69.3167V197.09H839.987Z" fill="#E4FE00"/>
</g>
<defs>
<clipPath id="clip0_66_100">
<rect width="1008.86" height="198" fill="white"/>
</clipPath>
</defs>
</svg>
