<svg width="185" height="94" viewBox="0 0 185 94" fill="none" xmlns="http://www.w3.org/2000/svg">
<g clip-path="url(#clip0_46_153)">
<path d="M76.5965 52.3139C76.0229 51.9528 75.8665 51.2821 76.2315 50.7146C76.5965 50.1471 77.2743 49.9923 77.8479 50.3535L128.113 84.6619C128.686 85.023 128.843 85.6937 128.478 86.2612C128.113 86.8288 127.435 86.9835 126.861 86.6224L76.5965 52.3139Z" fill="#1D1D1B"/>
<path d="M75.8145 50.8178C76.1274 50.1987 76.7531 49.9923 77.3788 50.3019C78.0045 50.6114 78.213 51.2305 77.9002 51.8496L60.954 86.3645C60.6412 86.9836 60.0155 87.1899 59.3898 86.8804C58.7641 86.5708 58.5555 85.9517 58.8683 85.3326L75.8145 50.8178Z" fill="#1D1D1B"/>
<path d="M8.34267 8.20297C8.34267 7.53227 8.86409 7.01636 9.54194 7.01636C10.2198 7.01636 10.7412 7.53227 10.7412 8.20297V32.3995L42.8086 7.17113C42.8086 7.17113 43.1736 7.01636 43.4343 7.01636C44.1121 7.01636 44.6335 7.53227 44.6335 8.20297C44.6335 8.6157 44.3728 8.92525 44.06 9.13162L23.8289 25.0734L44.1643 41.7891C44.4771 42.0471 44.7378 42.3566 44.7378 42.7694C44.7378 43.3885 44.2164 43.9044 43.5386 43.9044C43.33 43.9044 43.0693 43.8528 42.9128 43.7496L22.056 26.518L10.6891 35.1854V42.7178C10.6891 43.3885 10.1676 43.9044 9.48979 43.9044C8.81195 43.9044 8.29053 43.3885 8.29053 42.7178V8.20297H8.34267Z" fill="#1D1D1B"/>
<path d="M50.8906 8.20297C50.8906 7.53227 51.412 7.01636 52.0899 7.01636C52.7677 7.01636 53.2892 7.53227 53.2892 8.20297V34.1536H83.7923V8.20297C83.7923 7.53227 84.3137 7.01636 84.9915 7.01636C85.6694 7.01636 86.1908 7.53227 86.1908 8.20297V42.7178C86.1908 43.3885 85.6694 43.9044 84.9915 43.9044C84.3137 43.9044 83.7923 43.3885 83.7923 42.7178V36.372H53.2892V42.7178C53.2892 43.3885 52.7677 43.9044 52.0899 43.9044C51.412 43.9044 50.8906 43.3885 50.8906 42.7178V8.20297Z" fill="#1D1D1B"/>
<path d="M111.323 7.79023L128.217 41.9955C128.217 41.9955 128.426 42.5114 128.426 42.7694C128.426 43.3885 127.904 43.9044 127.279 43.9044C126.81 43.9044 126.392 43.6464 126.236 43.2853L122.795 36.4236H97.6621L94.2207 43.2853C94.0643 43.5948 93.595 43.9044 93.1779 43.9044C92.5522 43.9044 92.0308 43.3885 92.0308 42.7694C92.0308 42.5114 92.1351 42.2019 92.2393 41.9955L109.133 7.79023C109.342 7.32591 109.707 7.01636 110.176 7.01636C110.645 7.01636 111.01 7.32591 111.219 7.79023H111.323ZM121.7 34.1536L110.385 10.6794H110.176L98.8614 34.1536H121.752H121.7Z" fill="#1D1D1B"/>
<path d="M134.37 8.20297C134.37 7.53227 134.892 7.01636 135.413 7.01636C135.934 7.01636 136.143 7.17113 136.352 7.42909L167.741 39.7255V8.20297C167.741 7.53227 168.262 7.01636 168.94 7.01636C169.618 7.01636 170.14 7.53227 170.14 8.20297V42.7694C170.14 43.3885 169.775 43.9044 169.097 43.9044C168.575 43.9044 168.367 43.7496 168.106 43.4401L136.769 11.0921V42.7178C136.769 43.3885 136.247 43.9044 135.569 43.9044C134.892 43.9044 134.37 43.3885 134.37 42.7178V8.20297Z" fill="#1D1D1B"/>
<path d="M42.2871 50.9724C42.4957 50.5081 42.8607 50.147 43.4343 50.147C44.06 50.147 44.5814 50.6629 44.5814 51.3336C44.5814 51.4884 44.5293 51.7463 44.4771 51.8495L27.5831 86.2095C27.3745 86.6223 27.0095 87.035 26.436 87.035C25.8624 87.035 25.5495 86.5707 25.2888 86.2095L8.39481 51.8495C8.39481 51.8495 8.29053 51.5399 8.29053 51.3336C8.29053 50.6629 8.81195 50.147 9.43765 50.147C10.0112 50.147 10.3241 50.5597 10.5848 50.9724L26.436 83.2688L42.2871 50.9724Z" fill="#1D1D1B"/>
<path d="M50.3691 51.3336C50.3691 50.6629 50.8906 50.147 51.5684 50.147C52.2463 50.147 52.7677 50.6629 52.7677 51.3336V85.8484C52.7677 86.5191 52.2463 87.035 51.5684 87.035C50.8906 87.035 50.3691 86.5191 50.3691 85.8484V51.3336Z" fill="#1D1D1B"/>
<path d="M14.8083 94H1.14713C0.521421 94 0 93.4841 0 92.865C0 92.2459 0.521421 91.73 1.14713 91.73H175.093C175.719 91.73 176.24 92.2459 176.24 92.865C176.24 93.4841 175.719 94 175.093 94H17.1547" fill="#1D1D1B"/>
<path d="M2.24211 16.9737V92.8134C2.24211 93.4325 1.72069 93.9484 1.09498 93.9484C0.469278 93.9484 0 93.4325 0 92.865V1.13502C0 0.515917 0.521421 0 1.14713 0C1.77283 0 2.29425 0.515917 2.29425 1.13502V14.652" fill="#1D1D1B"/>
<path d="M176.188 23.9385V92.8649C176.188 93.484 175.666 94 175.041 94C174.415 94 173.894 93.484 173.894 92.8649V7.94507C173.894 7.32597 174.415 6.81006 175.041 6.81006C175.666 6.81006 176.188 7.32597 176.188 7.94507V21.5653" fill="#1D1D1B"/>
<path d="M1.14713 2.21844C0.521421 2.21844 0 1.70252 0 1.13502C0 0.567508 0.521421 0 1.14713 0H145.685C146.311 0 146.832 0.567508 146.832 1.13502C146.832 1.70252 146.311 2.21844 145.685 2.21844" fill="#1D1D1B"/>
<path d="M167.793 2.21844H154.132C153.506 2.21844 152.985 1.70252 152.985 1.08342C152.985 0.464325 153.506 0 154.132 0H183.853C184.479 0 185 0.515917 185 1.13502C185 1.75412 184.479 2.27003 183.853 2.27003H170.192" fill="#1D1D1B"/>
<path d="M134.37 51.3336C134.37 50.6629 134.892 50.147 135.413 50.147C135.934 50.147 136.143 50.3017 136.352 50.5597L167.741 82.8561V51.3336C167.741 50.6629 168.262 50.147 168.94 50.147C169.618 50.147 170.14 50.6629 170.14 51.3336V85.9C170.14 86.5191 169.775 87.035 169.097 87.035C168.575 87.035 168.367 86.8802 168.106 86.5707L136.769 54.2227V85.8484C136.769 86.5191 136.247 87.035 135.569 87.035C134.892 87.035 134.37 86.5191 134.37 85.8484V51.3336Z" fill="#1D1D1B"/>
<path d="M116.277 77.3359C116.955 77.3359 117.424 77.8519 117.424 78.471C117.424 79.0901 116.902 79.606 116.277 79.606H63.7697C63.0918 79.606 62.6226 79.0901 62.6226 78.471C62.6226 77.8519 63.144 77.3359 63.7697 77.3359H116.277Z" fill="#1D1D1B"/>
</g>
<defs>
<clipPath id="clip0_46_153">
<rect width="185" height="94" fill="white"/>
</clipPath>
</defs>
</svg>
