<svg width="89" height="98" viewBox="0 0 89 98" fill="none" xmlns="http://www.w3.org/2000/svg">
<g clip-path="url(#clip0_66_83)">
<path d="M53.5163 81.816C53.5163 80.5539 53.7105 79.4132 54.1231 78.3938C54.5357 77.3745 55.0939 76.5007 55.7977 75.7726C56.5016 75.0445 57.3511 74.4863 58.2733 74.098C59.2199 73.7096 60.215 73.5155 61.3072 73.5155C62.9818 73.5155 64.4138 73.8552 65.6273 74.5591C66.8408 75.2629 67.7631 76.4037 68.4184 77.9812H68.4912C68.7097 77.2046 69.0252 76.5735 69.462 76.0639C69.8989 75.5542 70.4086 75.1416 71.0154 74.8261C71.6221 74.5106 72.2774 74.2679 72.9813 74.1222C73.6851 73.9766 74.4132 73.8795 75.1171 73.831C75.5782 73.8067 76.0879 73.7824 76.6947 73.7582C77.3014 73.7339 77.9325 73.6854 78.5635 73.6125C79.1945 73.5397 79.8013 73.4427 80.3595 73.297C80.9177 73.1514 81.4031 72.933 81.8157 72.6417V78.8792C80.9177 79.219 79.8498 79.4375 78.5878 79.5103C77.35 79.5831 76.1607 79.7044 75.02 79.8743C73.5395 80.0928 72.4473 80.5296 71.7677 81.2335C71.0882 81.9131 70.7484 83.0538 70.7484 84.6071V90.8446H81.8157V97.0821H53.4678V81.7917L53.5163 81.816ZM66.3311 84.0246C66.3311 82.5926 66.0156 81.5247 65.3846 80.8209C64.7536 80.117 63.7099 79.753 62.278 79.753C60.846 79.753 59.8995 80.117 59.2927 80.8209C58.6859 81.5247 58.3704 82.6169 58.3704 84.0246V90.8446H66.3554V84.0246H66.3311Z" fill="#1D1D1B"/>
<path d="M58.7346 71.3796H53.4922V48.1527H58.7346V56.6474H81.8402V62.8849H58.7346V71.3796Z" fill="#1D1D1B"/>
<path d="M74.8503 40.1435C75.5056 39.8037 76.0395 39.3425 76.4521 38.7843C76.8647 38.2261 77.156 37.5465 77.3744 36.7699C77.5686 35.9932 77.6657 35.2165 77.6657 34.3913C77.6657 33.8331 77.6171 33.2506 77.52 32.5953C77.423 31.9643 77.2531 31.3575 76.9861 30.7993C76.7191 30.2411 76.3551 29.7799 75.8939 29.4159C75.4328 29.0518 74.8503 28.8577 74.1222 28.8577C73.3455 28.8577 72.7387 29.1004 72.2533 29.5858C71.7679 30.0712 71.3796 30.7265 71.0641 31.5032C70.7486 32.3041 70.4816 33.2021 70.2389 34.1972C69.9962 35.1923 69.7292 36.2116 69.438 37.2553C69.171 38.3232 68.8555 39.3425 68.4671 40.3619C68.0788 41.357 67.5934 42.2793 66.9866 43.0559C66.3799 43.8569 65.6275 44.4879 64.7052 44.9733C63.7829 45.4587 62.6907 45.7014 61.3801 45.7014C59.9239 45.7014 58.6618 45.3859 57.5939 44.7791C56.526 44.1481 55.628 43.3472 54.9242 42.3278C54.2203 41.3327 53.6864 40.192 53.3466 38.9057C53.0068 37.6193 52.8369 36.3573 52.8369 35.0952C52.8369 33.6147 53.0068 32.1827 53.3223 30.8236C53.6621 29.4644 54.1961 28.2509 54.9242 27.183C55.6766 26.1151 56.5988 25.2899 57.7638 24.6589C58.9045 24.0278 60.3122 23.7366 61.9626 23.7366V29.7799C61.1132 29.8285 60.4093 30.0227 59.8511 30.3139C59.2929 30.6294 58.856 31.0177 58.5405 31.5274C58.225 32.0371 58.0065 32.5953 57.8609 33.2506C57.7396 33.9059 57.6667 34.6098 57.6667 35.3864C57.6667 35.8961 57.7153 36.3815 57.8366 36.8912C57.9337 37.4009 58.1279 37.862 58.3949 38.2504C58.6618 38.6387 59.0016 39.0027 59.39 39.2697C59.7783 39.5367 60.288 39.6581 60.8947 39.6581C61.4529 39.6581 61.8898 39.561 62.2539 39.3425C62.6179 39.1241 62.9092 38.7115 63.2004 38.0805C63.4917 37.4494 63.7829 36.6 64.0742 35.5078C64.3654 34.4156 64.7295 32.9837 65.1906 31.2119C65.2877 30.678 65.4819 29.9498 65.7731 29.0033C66.0401 28.0567 66.5012 27.1345 67.108 26.2122C67.7147 25.2899 68.5399 24.489 69.5593 23.8094C70.5787 23.1298 71.8893 22.79 73.4669 22.79C74.7532 22.79 75.9667 23.0327 77.0832 23.5424C78.1996 24.0521 79.1462 24.8045 79.9714 25.7753C80.7723 26.7704 81.4033 28.0082 81.8645 29.4644C82.3256 30.9207 82.544 32.6439 82.544 34.5612C82.544 36.1146 82.3499 37.6436 81.9615 39.0998C81.5732 40.5561 80.9664 41.8667 80.1655 42.9831C79.3403 44.0996 78.2967 44.9976 77.0346 45.6529C75.7726 46.3082 74.2678 46.6237 72.5203 46.5994V40.5561C73.4669 40.5561 74.2921 40.3862 74.9474 40.0464L74.8503 40.1435Z" fill="#1D1D1B"/>
<path d="M50.0946 24.3919L45.9443 20.4601L65.4336 0.0242705L69.5353 0L89.0002 19.829L84.9228 23.8579L67.5208 6.11617L50.0946 24.3919Z" fill="#1D1D1B"/>
<path d="M0.630746 82.8838C0.703558 81.5489 1.04335 80.4568 1.62584 79.583C2.20833 78.7093 2.96072 78.0054 3.85873 77.4715C4.75673 76.9375 5.7761 76.5735 6.89254 76.3308C8.00898 76.0881 9.1497 75.991 10.2904 75.991C11.3098 75.991 12.3777 76.0638 13.4213 76.2094C14.4892 76.355 15.4358 76.6463 16.3095 77.0589C17.1832 77.4715 17.8871 78.0783 18.4453 78.8306C19.0035 79.583 19.2705 80.5781 19.2705 81.8159V92.4949C19.2705 93.4172 19.319 94.3152 19.4404 95.1647C19.5375 96.0142 19.7316 96.6452 19.9986 97.0821H14.2708C14.1737 96.7666 14.0766 96.451 14.0038 96.1112C13.931 95.7715 13.8825 95.4317 13.8582 95.0919C12.9602 96.0142 11.8923 96.6695 10.6787 97.0335C9.46522 97.3976 8.22742 97.5918 6.94108 97.5918C5.97026 97.5918 5.04798 97.4704 4.19851 97.2277C3.34904 96.985 2.62093 96.6209 1.96563 96.1112C1.33459 95.6016 0.824911 94.9705 0.485123 94.1939C0.121065 93.4172 -0.0488281 92.5192 -0.0488281 91.4513C-0.0488281 90.2863 0.145336 89.3155 0.557935 88.5631C0.970534 87.8107 1.50449 87.204 2.13552 86.7671C2.79082 86.306 3.51894 85.9904 4.36841 85.7477C5.1936 85.5293 6.04307 85.3351 6.89254 85.2138C7.74201 85.0924 8.56721 84.9711 9.3924 84.8983C10.2176 84.8255 10.9457 84.7041 11.5768 84.5342C12.2078 84.3643 12.7175 84.1459 13.0815 83.8304C13.4456 83.5149 13.6155 83.078 13.5912 82.4955C13.5912 81.8887 13.4941 81.4033 13.3 81.0393C13.1058 80.6752 12.8388 80.4082 12.499 80.2141C12.1592 80.0199 11.7952 79.8743 11.3583 79.8257C10.9214 79.7529 10.4603 79.7286 9.95063 79.7286C8.83418 79.7286 7.96044 79.9714 7.32941 80.4325C6.69838 80.9179 6.33432 81.6946 6.21297 82.811H0.630746V82.8838ZM9.29532 65.943L13.4941 72.9572H9.5623L3.08207 65.943H9.27105H9.29532ZM13.664 87.0583C13.4213 87.2768 13.1301 87.4467 12.766 87.5438C12.4019 87.6408 12.0136 87.7622 11.6253 87.835C11.2127 87.9078 10.7758 87.9806 10.339 88.0292C9.87782 88.0777 9.44095 88.1505 8.9798 88.2233C8.56721 88.2961 8.13034 88.4175 7.71774 88.5388C7.30514 88.6602 6.94108 88.8544 6.64984 89.0728C6.33432 89.2912 6.09161 89.5825 5.92172 89.9223C5.72756 90.2621 5.65474 90.6989 5.65474 91.2329C5.65474 91.7668 5.75183 92.1552 5.92172 92.4949C6.09161 92.8347 6.35859 93.1017 6.67411 93.3201C6.98962 93.5386 7.35368 93.6599 7.79055 93.7327C8.20315 93.8055 8.64002 93.8541 9.10116 93.8541C10.2176 93.8541 11.0671 93.6599 11.6738 93.2959C12.2806 92.9318 12.7417 92.4707 13.033 91.961C13.3242 91.4513 13.4941 90.9174 13.5669 90.3834C13.6397 89.8495 13.664 89.4369 13.664 89.1213V87.0098V87.0583Z" fill="#1D1D1B"/>
<path d="M22.5956 84.3158C22.5956 82.5441 22.8625 81.0393 23.3722 79.8015C23.8819 78.5637 24.5615 77.5443 25.4109 76.7677C26.2604 75.991 27.2312 75.4085 28.2991 75.0687C29.3913 74.7047 30.5077 74.5348 31.6727 74.5348C32.8377 74.5348 33.9299 74.7047 35.0221 75.0687C36.1142 75.4328 37.0851 75.991 37.9345 76.7677C38.784 77.5443 39.4636 78.5637 39.9732 79.8015C40.4829 81.0393 40.7499 82.5441 40.7499 84.3158V90.8689H50.9193V97.1064H22.5713V84.3158H22.5956ZM35.9201 86.0147C35.9201 85.3109 35.8715 84.6071 35.7502 83.9518C35.6531 83.2965 35.4347 82.714 35.1434 82.2043C34.8522 81.6946 34.4153 81.3063 33.8571 80.9907C33.2989 80.6752 32.5707 80.5296 31.6727 80.5296C30.7747 80.5296 30.0466 80.6752 29.4884 80.9907C28.9302 81.3063 28.4933 81.6946 28.202 82.2043C27.9108 82.714 27.6924 83.2965 27.5953 83.9518C27.4982 84.6071 27.4497 85.3109 27.4497 86.0147V90.8689H35.9443V86.0147H35.9201Z" fill="#1D1D1B"/>
<path d="M22.5957 59.4143L50.9437 48.808V55.2883L44.6333 57.4241V68.0303L50.9437 70.2632V76.525L22.5957 65.7974V59.4143ZM39.9734 59.0745L29.5613 62.6422V62.7151L39.9734 66.4042V59.0502V59.0745Z" fill="#1D1D1B"/>
</g>
<defs>
<clipPath id="clip0_66_83">
<rect width="89" height="97.616" fill="white"/>
</clipPath>
</defs>
</svg>
